<svg xmlns="http://www.w3.org/2000/svg" xmlns:xlink="http://www.w3.org/1999/xlink" width="1080" zoomAndPan="magnify" viewBox="0 0 810 1439.999935" height="1920" preserveAspectRatio="xMidYMid meet" version="1.0"><path fill="#685b50" d="M 387.246094 438.84375 C 350.105469 457.46875 312.863281 476.15625 278.203125 499.085938 C 264.878906 507.898438 251.816406 517.449219 241.40625 529.566406 C 226.085938 547.414062 217.109375 570.609375 216.410156 594.125 C 218.476562 577.886719 220.53125 561.65625 222.597656 545.417969 C 223.261719 540.160156 223.984375 534.734375 226.695312 530.1875 C 230.023438 524.609375 235.863281 521.097656 241.464844 517.828125 C 287.210938 491.097656 332.949219 464.355469 378.695312 437.625 C 384.871094 434.011719 391.398438 430.304688 398.550781 430.121094 C 402.886719 430.015625 407.132812 431.222656 411.300781 432.425781 C 422.960938 435.789062 434.621094 439.140625 446.28125 442.503906 C 368.203125 484.921875 293.972656 534.410156 224.777344 590.167969 C 222.457031 592.039062 217.03125 591.28125 218.890625 588.9375 C 230.609375 577.976562 242.347656 567.007812 255.085938 557.25 C 310.957031 514.5 385.167969 495.859375 430.925781 442.414062 C 422.949219 443.859375 414.539062 442.800781 407.179688 439.394531 C 403.976562 437.925781 400.855469 435.984375 397.332031 435.800781 C 393.785156 435.605469 390.425781 437.246094 387.246094 438.84375 " fill-opacity="1" fill-rule="nonzero"/><path fill="#685b50" d="M 227.933594 535.570312 C 246.8125 539.265625 266.046875 541.160156 285.296875 541.242188 C 269.527344 538.371094 253.757812 535.5 237.988281 532.632812 C 233.453125 531.804688 226.820312 532.621094 226.910156 537.222656 L 227.933594 535.570312 " fill-opacity="1" fill-rule="nonzero"/><path fill="#685b50" d="M 306.835938 482.59375 C 327.679688 483.742188 348.417969 486.875 368.664062 491.933594 C 352.160156 486.792969 335.65625 481.652344 319.164062 476.523438 C 317.796875 476.097656 316.375 475.660156 314.964844 475.890625 C 310.40625 476.601562 308.375 483.464844 303.761719 483.316406 C 303.625 481.699219 303.484375 480.066406 303.347656 478.4375 L 306.835938 482.59375 " fill-opacity="1" fill-rule="nonzero"/><path fill="#685b50" d="M 217.28125 597.605469 C 272.429688 594.847656 327.769531 596.179688 382.710938 601.585938 C 395.234375 547.035156 431.695312 500.074219 442.609375 445.179688 C 437.285156 448.597656 431.972656 452.007812 426.644531 455.425781 C 358.53125 499.257812 291.378906 544.613281 225.292969 591.441406 C 295.085938 547.472656 364.898438 503.503906 434.703125 459.535156 C 411.585938 503.746094 391.445312 549.503906 374.484375 596.421875 C 366.335938 589.238281 354.46875 587.972656 343.691406 589.304688 C 332.914062 590.636719 322.480469 594.183594 311.679688 595.296875 C 292.871094 597.238281 274.09375 591.726562 255.191406 591.335938 C 242.3125 591.0625 229.378906 593.207031 217.28125 597.605469 " fill-opacity="1" fill-rule="nonzero"/><path fill="#685b50" d="M 306.261719 479.941406 C 297.390625 497.789062 291.609375 517.171875 289.253906 536.972656 C 298.402344 516.964844 306.160156 496.320312 312.449219 475.238281 C 310.074219 475.902344 307.699219 476.566406 305.3125 477.234375 L 306.261719 479.941406 " fill-opacity="1" fill-rule="nonzero"/><path fill="#685b50" d="M 382.195312 436.386719 C 377.648438 453.71875 373.921875 471.253906 370.992188 488.929688 C 375.457031 484.554688 377.328125 478.265625 379.039062 472.265625 C 382.734375 459.261719 386.429688 446.257812 390.113281 433.253906 C 385.984375 434.503906 382.136719 436.742188 379.015625 439.726562 L 382.195312 436.386719 " fill-opacity="1" fill-rule="nonzero"/><path fill="#685b50" d="M 368.457031 518.757812 C 373.1875 542.546875 374.90625 566.9375 373.574219 591.164062 C 368.148438 584.105469 360.433594 579.242188 352.894531 574.523438 C 335.003906 563.332031 317.109375 552.15625 299.226562 540.964844 C 297.550781 544.625 294.121094 547.425781 290.207031 548.34375 C 299.25 549.445312 307.375 554.210938 315.203125 558.859375 C 335.449219 570.886719 355.683594 582.914062 375.929688 594.941406 C 375.136719 561.578125 373.65625 528.238281 371.511719 494.941406 C 365.324219 500.613281 366.828125 510.527344 368.457031 518.757812 " fill-opacity="1" fill-rule="nonzero"/><path fill="#685b50" d="M 365.359375 599.589844 C 370.867188 606.015625 381.171875 608.597656 388.164062 603.8125 C 395.152344 599.027344 395.53125 586.574219 388.015625 582.683594 C 384.9375 587.136719 391.765625 594.125 388.199219 598.199219 C 387.117188 599.441406 385.398438 599.863281 383.765625 600.175781 C 377.855469 601.300781 371.796875 601.632812 365.804688 601.183594 C 366.195312 602.710938 367.503906 603.960938 369.042969 604.292969 L 365.359375 599.589844 " fill-opacity="1" fill-rule="nonzero"/><path fill="#685b50" d="M 366.082031 606.441406 C 364.199219 608.863281 365.691406 612.730469 368.378906 614.222656 C 371.074219 615.714844 374.390625 615.40625 377.375 614.625 C 389.65625 611.410156 399.527344 600.414062 401.394531 587.859375 C 398.078125 587.160156 394.761719 586.460938 391.445312 585.769531 C 396.941406 587.011719 399.285156 594.253906 397.148438 599.453125 C 395.003906 604.660156 389.851562 607.980469 384.675781 610.171875 C 381.414062 611.558594 377.742188 612.636719 374.367188 611.546875 C 371.003906 610.46875 368.445312 606.371094 370.15625 603.261719 C 367.378906 604.660156 365.679688 607.921875 366.128906 610.984375 C 367.640625 610.46875 369.167969 609.964844 370.695312 609.449219 L 366.082031 606.441406 " fill-opacity="1" fill-rule="nonzero"/><path fill="#685b50" d="M 399.339844 595.929688 C 397.277344 593.128906 400.777344 589.628906 403.816406 588.019531 C 459.859375 558.089844 526.324219 547.496094 588.5625 560.269531 C 650.789062 573.054688 708.164062 609.480469 744.753906 661.4375 C 751.121094 670.480469 756.871094 679.949219 762.253906 689.625 C 765.730469 695.902344 769.09375 702.273438 772.238281 708.78125 C 755.988281 677.183594 728.949219 652.464844 702.550781 628.558594 C 685.839844 613.441406 669.003906 598.222656 649.585938 586.828125 C 612.296875 564.941406 567.339844 558.535156 524.257812 562.414062 C 481.171875 566.316406 439.546875 579.953125 399.339844 595.929688 " fill-opacity="1" fill-rule="nonzero"/><path fill="#685b50" d="M 776.566406 718.03125 C 775.363281 715.335938 774.097656 712.636719 772.8125 709.964844 C 773.144531 710.59375 773.46875 711.226562 773.777344 711.855469 C 774.753906 713.898438 775.71875 715.964844 776.566406 718.03125 " fill-opacity="1" fill-rule="nonzero"/><path fill="#685b50" d="M 463.3125 1079.820312 C 462.957031 1080.601562 462.625 1081.359375 462.304688 1082.105469 C 460.558594 1081.609375 458.851562 1081.105469 457.117188 1080.578125 C 442.875 1076.386719 428.769531 1071.601562 414.777344 1066.769531 C 402.507812 1062.5 390.160156 1058.152344 378.855469 1051.746094 C 348.464844 1034.589844 327.957031 1004.40625 310.316406 974.289062 C 300.972656 958.324219 292.101562 941.992188 285.019531 924.914062 C 268.917969 886.132812 262.421875 843.476562 265.796875 801.652344 C 265.832031 801.480469 265.832031 801.320312 265.851562 801.148438 C 266.828125 789.234375 268.621094 777.390625 271.214844 765.730469 C 271.867188 762.746094 272.578125 759.796875 273.359375 756.859375 C 273.382812 756.675781 273.429688 756.503906 273.484375 756.328125 C 288.015625 700.875 321.160156 650.476562 366.277344 615.128906 C 369.457031 612.605469 376.410156 612.410156 375.25 616.3125 C 355.269531 625.433594 342.449219 644.957031 330.710938 663.527344 C 316.949219 685.242188 303.140625 707.164062 292.558594 730.519531 C 292.273438 731.125 291.996094 731.757812 291.746094 732.390625 C 289.585938 737.222656 287.589844 742.109375 285.753906 747.101562 C 284.59375 750.222656 283.515625 753.378906 282.53125 756.546875 C 281.578125 759.496094 280.691406 762.46875 279.878906 765.441406 C 276.734375 776.910156 274.519531 788.582031 273.175781 800.34375 C 273.128906 800.644531 273.105469 800.941406 273.082031 801.25 C 265.324219 871.652344 288.625 945.574219 331.285156 1003.097656 C 340.050781 1014.90625 349.648438 1026.222656 361.238281 1035.265625 C 376.742188 1047.363281 395.175781 1054.949219 413.445312 1062.132812 C 428.136719 1067.917969 442.953125 1073.542969 458.023438 1078.203125 C 459.78125 1078.765625 461.546875 1079.316406 463.3125 1079.820312 " fill-opacity="1" fill-rule="nonzero"/><path fill="#685b50" d="M 498.101562 1087.703125 C 498.457031 1087.75 498.835938 1087.808594 499.191406 1087.851562 C 498.835938 1088.78125 498.480469 1089.691406 498.136719 1090.597656 C 496.34375 1090.296875 494.578125 1089.941406 492.808594 1089.585938 C 493.121094 1088.738281 493.417969 1087.851562 493.695312 1086.96875 C 495.152344 1087.246094 496.644531 1087.476562 498.101562 1087.703125 " fill-opacity="1" fill-rule="nonzero"/><path fill="#685b50" d="M 799.703125 862.800781 C 796.078125 883.367188 788.996094 903.1875 780.398438 922.21875 C 758.914062 969.628906 727.15625 1012.921875 685.714844 1044.4375 C 644.292969 1075.984375 592.921875 1095.3125 540.839844 1094.878906 C 534.839844 1094.832031 528.894531 1094.53125 522.949219 1094.003906 C 519.34375 1093.695312 515.765625 1093.292969 512.195312 1092.824219 C 512.34375 1092.386719 512.492188 1091.960938 512.640625 1091.539062 C 512.894531 1090.824219 513.148438 1090.148438 513.375 1089.4375 C 517.003906 1089.746094 520.652344 1089.941406 524.3125 1090.023438 C 576.257812 1091.457031 628.523438 1074.472656 671.324219 1044.722656 C 721.363281 1009.949219 758.859375 958.679688 781.59375 902.132812 C 786.953125 888.808594 791.542969 875.09375 794.136719 860.988281 C 798.945312 834.660156 796.652344 807.515625 792.726562 781.039062 C 789.546875 759.625 785.242188 738.128906 776.691406 718.285156 C 797.257812 763.859375 808.367188 813.980469 799.703125 862.800781 " fill-opacity="1" fill-rule="nonzero"/><path fill="#685b50" d="M 296.164062 796.007812 C 296.039062 796.945312 295.933594 797.898438 295.855469 798.851562 C 295.75 799.757812 295.660156 800.644531 295.578125 801.550781 C 295.347656 804.097656 295.152344 806.621094 295.003906 809.160156 C 295.097656 806.621094 295.257812 804.097656 295.476562 801.550781 C 295.578125 800.664062 295.683594 799.757812 295.75 798.851562 C 295.886719 797.898438 296.003906 796.96875 296.164062 796.007812 " fill-opacity="1" fill-rule="nonzero"/><path fill="#685b50" d="M 396.585938 629.316406 C 380.140625 651.511719 363.660156 673.707031 347.179688 695.902344 C 338.054688 708.230469 328.816406 720.796875 320.746094 733.902344 C 319.496094 735.867188 318.304688 737.851562 317.144531 739.847656 C 313.574219 745.945312 310.269531 752.164062 307.398438 758.546875 C 306.367188 760.804688 305.378906 763.078125 304.472656 765.375 C 300.765625 774.613281 297.976562 784.195312 296.417969 794.148438 C 296.335938 794.570312 296.289062 794.972656 296.234375 795.398438 C 297.390625 785.273438 299.160156 775.242188 301.605469 765.351562 C 302.085938 763.308594 302.613281 761.265625 303.164062 759.246094 C 303.292969 758.796875 303.417969 758.363281 303.542969 757.914062 C 305.277344 751.660156 307.273438 745.460938 309.570312 739.390625 C 310.417969 737.070312 311.300781 734.753906 312.253906 732.492188 C 329.34375 690.636719 358.597656 653.644531 396.585938 629.316406 " fill-opacity="1" fill-rule="nonzero"/><path fill="#685b50" d="M 471.726562 1055.707031 C 471.625 1056.109375 471.496094 1056.511719 471.394531 1056.910156 C 469.15625 1056.382812 466.917969 1055.855469 464.691406 1055.269531 C 420.976562 1044.035156 380.1875 1023.226562 350.910156 989.484375 C 333.40625 969.308594 320.679688 945.296875 311.53125 920.175781 C 298.65625 884.894531 292.753906 846.90625 295.003906 809.457031 C 294.5 825.03125 296.589844 840.707031 299.585938 856.054688 C 308.203125 900.171875 324.582031 943.324219 351.691406 979.179688 C 378.808594 1015.03125 417.257812 1043.230469 460.996094 1053.539062 C 462.28125 1053.835938 463.589844 1054.144531 464.898438 1054.398438 C 467.171875 1054.902344 469.429688 1055.328125 471.726562 1055.707031 " fill-opacity="1" fill-rule="nonzero"/><path fill="#685b50" d="M 507.753906 1058.929688 C 507.433594 1060.367188 507.097656 1061.777344 506.753906 1063.191406 C 504.65625 1062.9375 502.566406 1062.660156 500.476562 1062.351562 C 500.753906 1061.148438 501.003906 1059.90625 501.234375 1058.703125 C 503.390625 1058.804688 505.5625 1058.875 507.753906 1058.929688 " fill-opacity="1" fill-rule="nonzero"/><path fill="#685b50" d="M 754.496094 888.257812 C 739.839844 928.632812 715.625 964.921875 688.769531 998.480469 C 676.523438 1013.804688 663.472656 1028.816406 647.371094 1040.027344 C 614.429688 1062.984375 572.253906 1067.664062 531.96875 1065.449219 C 529.902344 1065.324219 527.835938 1065.199219 525.773438 1065.046875 C 524.441406 1064.945312 523.121094 1064.855469 521.789062 1064.75 C 522.421875 1062.832031 522.996094 1060.917969 523.578125 1059 C 527 1058.976562 530.429688 1058.929688 533.863281 1058.851562 C 534.863281 1058.828125 535.871094 1058.804688 536.882812 1058.769531 C 562.832031 1058.117188 589.515625 1056.554688 613.078125 1045.675781 C 636.03125 1035.070312 654.199219 1016.5 671.703125 998.230469 C 704.914062 963.582031 738.875 926.980469 753.269531 881.175781 C 769.644531 829.164062 758.203125 771.742188 734.722656 722.542969 C 723.886719 699.863281 710.402344 678.160156 692.519531 660.507812 C 679.136719 647.300781 663.4375 636.523438 646.84375 627.671875 C 571.40625 587.585938 475.101562 589.984375 401.75 633.746094 C 408.683594 618.859375 425.863281 612.121094 441.644531 607.566406 C 498.308594 591.164062 560.488281 585.09375 615.464844 606.488281 C 652.984375 621.097656 684.867188 647.65625 711.445312 677.886719 C 733.082031 702.503906 751.902344 730.324219 761.359375 761.710938 C 773.753906 802.859375 769.164062 847.859375 754.496094 888.257812 " fill-opacity="1" fill-rule="nonzero"/><path fill="#685b50" d="M 478.132812 1016.167969 C 478.074219 1017.15625 478.027344 1018.140625 477.949219 1019.140625 C 475.179688 1018.335938 472.402344 1017.453125 469.683594 1016.523438 C 420.125 999.664062 376.765625 963.867188 353.710938 916.71875 C 337.402344 883.367188 331.8125 845.472656 335.988281 808.628906 C 336.023438 808.457031 336.046875 808.273438 336.070312 808.101562 C 337.355469 796.945312 339.546875 785.847656 342.621094 775.050781 C 342.792969 774.464844 342.957031 773.855469 343.128906 773.28125 C 346.019531 763.457031 349.625 753.851562 353.9375 744.613281 C 354.191406 744.0625 354.445312 743.5 354.695312 742.949219 C 364.085938 723.21875 376.664062 705.097656 392.238281 689.683594 C 383.367188 706.566406 374.472656 723.414062 365.578125 740.296875 C 364.589844 742.167969 363.613281 744.027344 362.628906 745.898438 C 362.179688 746.769531 361.71875 747.628906 361.296875 748.515625 C 356.808594 757.132812 352.550781 765.84375 349.074219 774.898438 C 348.773438 775.644531 348.488281 776.425781 348.210938 777.183594 C 347.789062 778.320312 347.386719 779.457031 347.007812 780.617188 C 333.796875 819.796875 338.914062 863.890625 356.601562 901.273438 C 374.300781 938.640625 403.816406 969.628906 437.710938 993.316406 C 447.867188 1000.421875 458.597656 1006.929688 469.789062 1012.371094 C 472.53125 1013.699219 475.332031 1014.964844 478.132812 1016.167969 " fill-opacity="1" fill-rule="nonzero"/><path fill="#685b50" d="M 507.375 1025.441406 C 506.71875 1025.371094 506.089844 1025.269531 505.457031 1025.1875 C 505.492188 1025.144531 505.492188 1025.085938 505.457031 1025.039062 C 506.089844 1025.1875 506.753906 1025.316406 507.375 1025.441406 " fill-opacity="1" fill-rule="nonzero"/><path fill="#685b50" d="M 512.621094 1026.097656 C 512.621094 1026.199219 512.621094 1026.300781 512.597656 1026.40625 C 510.851562 1026.128906 509.117188 1025.820312 507.375 1025.441406 C 509.117188 1025.695312 510.851562 1025.902344 512.621094 1026.097656 " fill-opacity="1" fill-rule="nonzero"/><path fill="#685b50" d="M 552.433594 1026.175781 C 548.898438 1026.808594 545.351562 1027.277344 541.769531 1027.589844 C 538.695312 1027.863281 535.621094 1027.988281 532.519531 1028.011719 L 531.167969 1028.011719 C 531.210938 1027.738281 531.257812 1027.460938 531.292969 1027.175781 C 534.816406 1027.230469 538.339844 1027.175781 541.875 1027.003906 C 545.398438 1026.832031 548.921875 1026.578125 552.433594 1026.175781 " fill-opacity="1" fill-rule="nonzero"/><path fill="#685b50" d="M 727.71875 827.121094 C 727.15625 848.914062 726.136719 871.089844 718.769531 891.597656 C 706.683594 925.386719 679.058594 950.839844 652.410156 974.851562 C 636.480469 989.210938 620.285156 1003.75 601.003906 1013.09375 C 587.070312 1019.851562 571.910156 1023.707031 556.566406 1025.695312 C 555.199219 1025.878906 553.84375 1026.050781 552.480469 1026.175781 C 575.960938 1022.023438 598.316406 1011.210938 617.816406 997.277344 C 642.78125 979.40625 663.691406 956.558594 684.132812 933.625 C 692.0625 924.730469 700.050781 915.664062 705.765625 905.210938 C 712.570312 892.734375 715.957031 878.730469 718.261719 864.71875 C 728.949219 800.414062 715.164062 727.398438 665.078125 685.679688 C 650.066406 673.179688 632.578125 664.078125 615.269531 655.058594 C 592.0625 643.019531 567.742188 630.667969 541.597656 630.519531 C 528.421875 630.417969 515.441406 633.46875 502.667969 636.796875 C 464.015625 646.898438 424.890625 660.28125 394.878906 686.628906 C 438.421875 643.546875 502.714844 622.429688 563.335938 631.300781 C 623.957031 640.171875 679.496094 678.828125 708.875 732.585938 C 715.957031 745.519531 721.59375 759.300781 724.644531 773.707031 C 728.351562 791.195312 728.167969 809.261719 727.71875 827.121094 " fill-opacity="1" fill-rule="nonzero"/><path fill="#685b50" d="M 50.292969 1144.367188 C 57.960938 1157.117188 66.542969 1169.257812 76.09375 1180.574219 C 70.402344 1174.90625 65.109375 1168.835938 60.53125 1162.203125 C 56.652344 1156.542969 53.300781 1150.539062 50.292969 1144.367188 " fill-opacity="1" fill-rule="nonzero"/><path fill="#685b50" d="M 187.511719 751.566406 C 199.460938 747.378906 211.703125 743.199219 224.078125 740.378906 L 173.761719 756.753906 C 175.046875 756.125 176.355469 755.550781 177.664062 754.988281 C 180.957031 753.851562 184.242188 752.714844 187.511719 751.566406 " fill-opacity="1" fill-rule="nonzero"/><path fill="#685b50" d="M 39.597656 1119.023438 C 42.9375 1127.539062 46.34375 1136.101562 50.292969 1144.367188 C 41.730469 1130.113281 34.292969 1115.109375 27.96875 1099.765625 C 15.851562 1070.316406 7.542969 1039.078125 5.625 1007.273438 C 1.515625 938.664062 28.5 869.402344 75.542969 819.316406 C 101.996094 791.140625 134.578125 769 169.996094 753.734375 C 187.765625 746.09375 206.289062 740.148438 225.191406 736.015625 C 230.089844 734.9375 235.3125 734.433594 240.625 734.15625 C 219.0625 739.046875 197.898438 746.023438 177.664062 754.988281 C 170.859375 757.386719 164.050781 759.75 157.257812 762.113281 L 173.761719 756.753906 C 121.851562 780.433594 76.253906 817.125 45.863281 865.167969 C 36.820312 879.453125 29.152344 894.628906 23.011719 910.398438 C 12.5 937.378906 6.449219 966.277344 7.1875 995.257812 C 8.265625 1038.113281 23.917969 1079.109375 39.597656 1119.023438 " fill-opacity="1" fill-rule="nonzero"/><path fill="#685b50" d="M 243.679688 734.007812 C 242.667969 734.03125 241.636719 734.078125 240.625 734.15625 C 243.175781 733.546875 245.722656 732.996094 248.28125 732.492188 L 243.679688 734.007812 " fill-opacity="1" fill-rule="nonzero"/><path fill="#685b50" d="M 257.027344 730.792969 C 254.113281 731.332031 251.1875 731.882812 248.28125 732.492188 L 251.378906 731.484375 C 253.273438 731.230469 255.144531 731 257.027344 730.792969 " fill-opacity="1" fill-rule="nonzero"/><path fill="#685b50" d="M 224.078125 740.378906 L 243.679688 734.007812 C 256.179688 733.421875 268.996094 733.59375 279.476562 729.773438 C 281.417969 732.664062 278.972656 736.855469 275.699219 738.082031 C 272.429688 739.296875 268.769531 738.5625 265.324219 738 C 251.542969 735.867188 237.734375 737.277344 224.078125 740.378906 " fill-opacity="1" fill-rule="nonzero"/><path fill="#685b50" d="M 289.78125 730.371094 C 290.710938 730.390625 291.617188 730.449219 292.558594 730.519531 C 292.273438 731.125 291.996094 731.757812 291.746094 732.390625 C 291.066406 731.78125 290.414062 731.105469 289.78125 730.371094 " fill-opacity="1" fill-rule="nonzero"/><path fill="#685b50" d="M 320.746094 733.902344 C 319.496094 735.867188 318.304688 737.851562 317.144531 739.847656 C 314.550781 739.792969 312.003906 739.664062 309.570312 739.390625 C 310.417969 737.070312 311.300781 734.753906 312.253906 732.492188 C 315.113281 732.894531 317.925781 733.339844 320.746094 733.902344 " fill-opacity="1" fill-rule="nonzero"/><path fill="#685b50" d="M 543.378906 1015.261719 C 543.113281 1019.199219 542.574219 1023.125 541.875 1027.003906 C 541.851562 1027.175781 541.792969 1027.382812 541.769531 1027.589844 C 540.484375 1034.507812 538.671875 1041.394531 536.800781 1048.1875 C 535.847656 1051.746094 534.863281 1055.304688 533.863281 1058.851562 C 533.230469 1061.042969 532.601562 1063.257812 531.96875 1065.449219 C 529.546875 1073.667969 527.035156 1081.886719 524.3125 1090.023438 C 523.855469 1091.355469 523.429688 1092.695312 522.949219 1094.003906 C 510.597656 1129.90625 494.222656 1164.199219 468.296875 1191.511719 C 437.710938 1223.742188 395.992188 1243.640625 353.03125 1254.957031 C 270.9375 1276.570312 177.515625 1266.675781 110.765625 1214.261719 C 98.046875 1204.265625 86.503906 1192.925781 76.09375 1180.574219 C 81.382812 1185.867188 86.984375 1190.847656 92.675781 1195.644531 C 112.074219 1212.046875 132.789062 1227.113281 155.617188 1238.246094 C 235.105469 1277.003906 332.523438 1263.164062 410.65625 1221.722656 C 432.625 1210.046875 453.835938 1196.09375 469.960938 1177.203125 C 490.492188 1153.132812 501.613281 1122.675781 512.195312 1092.824219 C 512.34375 1092.386719 512.492188 1091.960938 512.640625 1091.539062 C 512.894531 1090.824219 513.148438 1090.148438 513.375 1089.4375 C 516.269531 1081.277344 519.136719 1073.035156 521.789062 1064.75 C 522.421875 1062.832031 522.996094 1060.917969 523.578125 1059 C 526.703125 1048.773438 529.351562 1038.445312 531.167969 1028.011719 C 531.210938 1027.738281 531.257812 1027.460938 531.292969 1027.175781 C 532.875 1017.832031 533.761719 1008.410156 533.65625 998.882812 C 533.359375 973.382812 525.921875 948.570312 518.414062 924.179688 C 509.625 895.511719 500.328125 866.234375 482.183594 842.316406 C 465.632812 820.496094 442.703125 804.523438 420.171875 788.925781 C 404.105469 777.792969 388.027344 766.660156 371.96875 755.550781 C 368.492188 753.128906 364.945312 750.683594 361.296875 748.515625 C 358.898438 747.058594 356.453125 745.738281 353.9375 744.613281 C 354.191406 744.0625 354.445312 743.5 354.695312 742.949219 C 357.359375 743.878906 360.011719 744.863281 362.628906 745.898438 C 397.90625 759.601562 430.15625 781.625 456.359375 809.03125 C 499.824219 854.539062 527.230469 913.976562 539.683594 975.675781 C 542.320312 988.703125 544.320312 1002.015625 543.378906 1015.261719 " fill-opacity="1" fill-rule="nonzero"/><path fill="#685b50" d="M 453.742188 851.992188 C 431.765625 826.464844 404.828125 805.085938 374.976562 789.429688 C 366.277344 784.875 357.335938 780.789062 348.210938 777.183594 C 346.351562 776.425781 344.480469 775.726562 342.621094 775.050781 C 342.792969 774.464844 342.957031 773.855469 343.128906 773.28125 C 345.113281 773.785156 347.109375 774.335938 349.074219 774.898438 C 390.976562 787.292969 427.105469 816.238281 453.742188 851.992188 " fill-opacity="1" fill-rule="nonzero"/><path fill="#685b50" d="M 307.398438 758.546875 C 306.367188 760.804688 305.378906 763.078125 304.472656 765.375 C 303.519531 765.375 302.554688 765.351562 301.605469 765.351562 C 302.085938 763.308594 302.613281 761.265625 303.164062 759.246094 C 303.292969 758.796875 303.417969 758.363281 303.542969 757.914062 C 304.828125 758.085938 306.113281 758.292969 307.398438 758.546875 " fill-opacity="1" fill-rule="nonzero"/><path fill="#685b50" d="M 512.621094 1026.097656 C 512.621094 1026.199219 512.621094 1026.300781 512.597656 1026.40625 C 511.757812 1037.367188 510.152344 1048.246094 507.753906 1058.929688 C 507.433594 1060.367188 507.097656 1061.777344 506.753906 1063.191406 C 504.710938 1071.554688 502.1875 1079.785156 499.191406 1087.851562 C 498.835938 1088.78125 498.480469 1089.691406 498.136719 1090.597656 C 493.210938 1103.199219 487.152344 1115.316406 479.863281 1126.761719 C 462.199219 1154.5 438.261719 1177.730469 412.496094 1198.136719 C 399.996094 1208.039062 386.96875 1217.359375 372.679688 1224.464844 C 327.324219 1247.074219 273.484375 1245.351562 223.871094 1234.953125 C 183.527344 1226.507812 143.496094 1212.242188 111.5 1186.246094 C 66.199219 1149.40625 41.328125 1092.179688 31.722656 1034.589844 C 29.4375 1020.863281 27.902344 1006.929688 28.453125 993.019531 C 29.128906 975.503906 33.089844 958.265625 37.472656 941.292969 C 45.484375 910.417969 55.285156 879.386719 73.601562 853.253906 C 107.367188 805.085938 165.339844 779.984375 222.367188 765.523438 C 238.917969 761.3125 256.199219 757.890625 273.359375 756.859375 C 276.402344 756.652344 279.476562 756.546875 282.53125 756.546875 C 281.578125 759.496094 280.691406 762.46875 279.878906 765.441406 C 276.984375 765.5 274.117188 765.601562 271.214844 765.730469 C 251.265625 766.601562 231.410156 768.792969 211.855469 772.984375 C 172.144531 781.464844 133.59375 798.578125 104.0625 826.464844 C 60.933594 867.289062 40.699219 927.886719 37.921875 987.199219 C 37.152344 1003.875 37.621094 1020.632812 39.941406 1037.136719 C 50.269531 1111.015625 99.484375 1177.960938 166.199219 1211.289062 C 232.914062 1244.628906 315.203125 1243.984375 382.148438 1211.117188 C 414.054688 1195.414062 442.703125 1172.667969 463.933594 1144.171875 C 476.410156 1127.4375 485.980469 1109.015625 492.808594 1089.585938 C 493.121094 1088.738281 493.417969 1087.851562 493.695312 1086.96875 C 496.414062 1078.914062 498.6875 1070.695312 500.476562 1062.351562 C 500.753906 1061.148438 501.003906 1059.90625 501.234375 1058.703125 C 503.425781 1047.695312 504.839844 1036.484375 505.457031 1025.1875 C 505.492188 1025.144531 505.492188 1025.085938 505.457031 1025.039062 C 508.257812 976.054688 496.769531 925.511719 473.183594 882.359375 C 467.445312 871.878906 460.9375 861.664062 453.742188 851.992188 C 474.953125 876.585938 491.558594 905.058594 501.738281 935.898438 C 511.289062 964.820312 514.9375 995.738281 512.621094 1026.097656 " fill-opacity="1" fill-rule="nonzero"/><path fill="#685b50" d="M 337.710938 809.113281 C 337.125 808.941406 336.574219 808.78125 335.988281 808.628906 C 336.023438 808.457031 336.046875 808.273438 336.070312 808.101562 C 336.621094 808.402344 337.183594 808.757812 337.710938 809.113281 " fill-opacity="1" fill-rule="nonzero"/><path fill="#685b50" d="M 444.214844 905.863281 C 431.511719 889.210938 416.292969 874.347656 401.222656 859.679688 C 386.210938 845.09375 370.84375 830.230469 351.875 821.382812 C 347.238281 819.210938 341.464844 815.882812 342.3125 810.824219 C 385.453125 830.230469 421.835938 864.214844 444.214844 905.863281 " fill-opacity="1" fill-rule="nonzero"/><path fill="#685b50" d="M 295.578125 801.550781 L 295.476562 801.550781 C 295.578125 800.664062 295.683594 799.757812 295.75 798.851562 L 295.855469 798.851562 C 295.75 799.757812 295.660156 800.644531 295.578125 801.550781 " fill-opacity="1" fill-rule="nonzero"/><path fill="#685b50" d="M 478.132812 1016.167969 C 478.074219 1017.15625 478.027344 1018.140625 477.949219 1019.140625 C 477.121094 1031.46875 474.996094 1043.734375 471.726562 1055.707031 C 471.625 1056.109375 471.496094 1056.511719 471.394531 1056.910156 C 469.203125 1064.726562 466.480469 1072.382812 463.3125 1079.820312 C 462.957031 1080.601562 462.625 1081.359375 462.304688 1082.105469 C 457.792969 1092.238281 452.375 1101.914062 446.097656 1111.015625 C 408.890625 1164.851562 344.664062 1197.183594 279.382812 1201.84375 C 263.476562 1202.96875 247.410156 1202.601562 231.789062 1199.523438 C 172.074219 1187.726562 124.019531 1150.894531 96.707031 1097.679688 C 70.964844 1047.488281 59.667969 986.617188 79.167969 932.339844 C 97.117188 882.382812 135.691406 839.515625 184.769531 819.292969 C 210.464844 808.6875 238.207031 804.269531 265.851562 801.148438 C 267.816406 800.917969 269.753906 800.699219 271.71875 800.492188 C 272.199219 800.449219 272.703125 800.390625 273.175781 800.34375 C 273.128906 800.644531 273.105469 800.941406 273.082031 801.25 C 270.664062 801.320312 268.21875 801.480469 265.796875 801.652344 C 207.574219 805.957031 150.878906 834.304688 115.378906 880.84375 C 65.132812 946.6875 61.527344 1044.769531 107.851562 1113.425781 C 154.160156 1182.089844 247.410156 1215.441406 326.371094 1190.550781 C 348.992188 1183.421875 370.109375 1172.128906 389.734375 1158.804688 C 411.335938 1144.171875 431.535156 1126.65625 445.320312 1104.484375 C 450.035156 1096.921875 453.914062 1088.886719 457.117188 1080.578125 C 457.4375 1079.785156 457.714844 1078.980469 458.023438 1078.203125 C 460.765625 1070.71875 462.957031 1063.0625 464.691406 1055.269531 C 464.773438 1054.972656 464.851562 1054.671875 464.898438 1054.398438 C 465.171875 1053.160156 465.425781 1051.894531 465.679688 1050.667969 C 467.917969 1039.421875 469.257812 1028.011719 469.683594 1016.523438 C 469.730469 1015.136719 469.789062 1013.757812 469.789062 1012.371094 C 470.417969 976.710938 462.28125 940.878906 445.949219 909.15625 C 445.375 908.054688 444.789062 906.964844 444.214844 905.863281 C 448.96875 912.0625 453.363281 918.511719 457.289062 925.257812 C 473.160156 952.722656 479.761719 984.527344 478.132812 1016.167969 " fill-opacity="1" fill-rule="nonzero"/></svg>