<svg xmlns="http://www.w3.org/2000/svg" xmlns:xlink="http://www.w3.org/1999/xlink" width="1080" zoomAndPan="magnify" viewBox="0 0 810 1094.999951" height="1460" preserveAspectRatio="xMidYMid meet" version="1.0"><defs><clipPath id="f5c24dd697"><path d="M 368 283.039062 L 390 283.039062 L 390 305 L 368 305 Z M 368 283.039062 " clip-rule="nonzero"/></clipPath></defs><path fill="#000000" d="M 485.1875 387.492188 C 485.1875 387.953125 485.140625 388.414062 485.050781 388.867188 C 484.960938 389.320312 484.828125 389.761719 484.652344 390.1875 C 484.472656 390.617188 484.257812 391.023438 484 391.40625 C 483.742188 391.792969 483.449219 392.148438 483.125 392.476562 C 482.796875 392.800781 482.441406 393.09375 482.058594 393.351562 C 481.671875 393.609375 481.265625 393.824219 480.839844 394.003906 C 480.414062 394.179688 479.972656 394.3125 479.519531 394.402344 C 479.066406 394.492188 478.605469 394.539062 478.144531 394.539062 C 477.683594 394.539062 477.222656 394.492188 476.769531 394.402344 C 476.316406 394.3125 475.875 394.179688 475.449219 394.003906 C 475.023438 393.824219 474.617188 393.609375 474.230469 393.351562 C 473.847656 393.09375 473.492188 392.800781 473.164062 392.476562 C 472.835938 392.148438 472.546875 391.792969 472.289062 391.40625 C 472.03125 391.023438 471.816406 390.617188 471.636719 390.1875 C 471.460938 389.761719 471.328125 389.320312 471.238281 388.867188 C 471.148438 388.414062 471.101562 387.953125 471.101562 387.492188 C 471.101562 387.027344 471.148438 386.570312 471.238281 386.117188 C 471.328125 385.664062 471.460938 385.222656 471.636719 384.792969 C 471.816406 384.367188 472.03125 383.960938 472.289062 383.574219 C 472.546875 383.191406 472.835938 382.835938 473.164062 382.507812 C 473.492188 382.179688 473.847656 381.886719 474.230469 381.632812 C 474.617188 381.375 475.023438 381.15625 475.449219 380.980469 C 475.875 380.804688 476.316406 380.667969 476.769531 380.578125 C 477.222656 380.488281 477.683594 380.445312 478.144531 380.445312 C 478.605469 380.445312 479.066406 380.488281 479.519531 380.578125 C 479.972656 380.667969 480.410156 380.804688 480.839844 380.980469 C 481.265625 381.15625 481.671875 381.375 482.058594 381.632812 C 482.441406 381.886719 482.796875 382.179688 483.125 382.507812 C 483.449219 382.835938 483.742188 383.191406 484 383.574219 C 484.257812 383.960938 484.472656 384.367188 484.652344 384.792969 C 484.828125 385.222656 484.960938 385.664062 485.050781 386.117188 C 485.140625 386.570312 485.1875 387.027344 485.1875 387.492188 Z M 485.1875 387.492188 " fill-opacity="1" fill-rule="nonzero"/><path fill="#000000" d="M 502.476562 326.886719 C 502.476562 327.347656 502.429688 327.808594 502.339844 328.261719 C 502.25 328.714844 502.117188 329.15625 501.9375 329.582031 C 501.761719 330.011719 501.542969 330.417969 501.289062 330.800781 C 501.03125 331.1875 500.738281 331.542969 500.414062 331.871094 C 500.085938 332.199219 499.730469 332.488281 499.34375 332.746094 C 498.960938 333.003906 498.554688 333.222656 498.128906 333.398438 C 497.699219 333.574219 497.261719 333.707031 496.804688 333.800781 C 496.351562 333.890625 495.894531 333.933594 495.433594 333.933594 C 494.96875 333.933594 494.511719 333.890625 494.058594 333.800781 C 493.605469 333.707031 493.164062 333.574219 492.738281 333.398438 C 492.308594 333.222656 491.902344 333.003906 491.519531 332.746094 C 491.136719 332.488281 490.78125 332.199219 490.453125 331.871094 C 490.125 331.542969 489.832031 331.1875 489.578125 330.800781 C 489.320312 330.417969 489.101562 330.011719 488.925781 329.582031 C 488.75 329.15625 488.617188 328.714844 488.523438 328.261719 C 488.433594 327.808594 488.390625 327.347656 488.390625 326.886719 C 488.390625 326.425781 488.433594 325.964844 488.523438 325.511719 C 488.617188 325.058594 488.75 324.617188 488.925781 324.191406 C 489.101562 323.761719 489.320312 323.355469 489.578125 322.972656 C 489.832031 322.585938 490.125 322.230469 490.453125 321.902344 C 490.78125 321.574219 491.136719 321.285156 491.519531 321.027344 C 491.902344 320.769531 492.308594 320.550781 492.738281 320.375 C 493.164062 320.199219 493.605469 320.066406 494.058594 319.972656 C 494.511719 319.882812 494.96875 319.839844 495.433594 319.839844 C 495.894531 319.839844 496.351562 319.882812 496.804688 319.972656 C 497.261719 320.066406 497.699219 320.199219 498.128906 320.375 C 498.554688 320.550781 498.960938 320.769531 499.34375 321.027344 C 499.730469 321.285156 500.085938 321.574219 500.414062 321.902344 C 500.738281 322.230469 501.03125 322.585938 501.289062 322.972656 C 501.542969 323.355469 501.761719 323.761719 501.9375 324.191406 C 502.117188 324.617188 502.25 325.058594 502.339844 325.511719 C 502.429688 325.964844 502.476562 326.425781 502.476562 326.886719 Z M 502.476562 326.886719 " fill-opacity="1" fill-rule="nonzero"/><path fill="#000000" d="M 303.390625 387.492188 C 303.390625 387.953125 303.347656 388.414062 303.257812 388.867188 C 303.164062 389.320312 303.03125 389.761719 302.855469 390.1875 C 302.679688 390.617188 302.460938 391.023438 302.203125 391.40625 C 301.949219 391.792969 301.65625 392.148438 301.328125 392.476562 C 301 392.800781 300.644531 393.09375 300.261719 393.351562 C 299.878906 393.609375 299.472656 393.824219 299.042969 394.003906 C 298.617188 394.179688 298.175781 394.3125 297.722656 394.402344 C 297.269531 394.492188 296.8125 394.539062 296.347656 394.539062 C 295.886719 394.539062 295.429688 394.492188 294.976562 394.402344 C 294.519531 394.3125 294.082031 394.179688 293.652344 394.003906 C 293.226562 393.824219 292.820312 393.609375 292.4375 393.351562 C 292.050781 393.09375 291.695312 392.800781 291.367188 392.476562 C 291.042969 392.148438 290.75 391.792969 290.492188 391.40625 C 290.238281 391.023438 290.019531 390.617188 289.84375 390.1875 C 289.664062 389.761719 289.53125 389.320312 289.441406 388.867188 C 289.351562 388.414062 289.304688 387.953125 289.304688 387.492188 C 289.304688 387.027344 289.351562 386.570312 289.441406 386.117188 C 289.53125 385.664062 289.664062 385.222656 289.84375 384.792969 C 290.019531 384.367188 290.234375 383.960938 290.492188 383.574219 C 290.75 383.191406 291.042969 382.835938 291.367188 382.507812 C 291.695312 382.179688 292.050781 381.886719 292.4375 381.632812 C 292.820312 381.375 293.226562 381.15625 293.652344 380.980469 C 294.082031 380.804688 294.519531 380.667969 294.976562 380.578125 C 295.429688 380.488281 295.886719 380.445312 296.347656 380.445312 C 296.8125 380.445312 297.269531 380.488281 297.722656 380.578125 C 298.175781 380.667969 298.617188 380.804688 299.042969 380.980469 C 299.472656 381.15625 299.878906 381.375 300.261719 381.632812 C 300.644531 381.886719 301 382.179688 301.328125 382.507812 C 301.65625 382.835938 301.949219 383.191406 302.203125 383.574219 C 302.460938 383.960938 302.679688 384.367188 302.855469 384.792969 C 303.03125 385.222656 303.164062 385.664062 303.257812 386.117188 C 303.347656 386.570312 303.390625 387.027344 303.390625 387.492188 Z M 303.390625 387.492188 " fill-opacity="1" fill-rule="nonzero"/><path fill="#000000" d="M 276.515625 311.058594 C 276.515625 311.523438 276.46875 311.980469 276.378906 312.433594 C 276.289062 312.890625 276.15625 313.328125 275.976562 313.757812 C 275.800781 314.183594 275.582031 314.589844 275.328125 314.976562 C 275.070312 315.359375 274.777344 315.714844 274.449219 316.042969 C 274.125 316.371094 273.769531 316.664062 273.382812 316.921875 C 273 317.175781 272.59375 317.394531 272.167969 317.570312 C 271.738281 317.75 271.296875 317.882812 270.84375 317.972656 C 270.390625 318.0625 269.933594 318.109375 269.472656 318.109375 C 269.007812 318.109375 268.550781 318.0625 268.097656 317.972656 C 267.644531 317.882812 267.203125 317.75 266.777344 317.570312 C 266.347656 317.394531 265.941406 317.175781 265.558594 316.921875 C 265.175781 316.664062 264.820312 316.371094 264.492188 316.042969 C 264.164062 315.714844 263.871094 315.359375 263.617188 314.976562 C 263.359375 314.589844 263.140625 314.183594 262.964844 313.757812 C 262.789062 313.328125 262.652344 312.890625 262.5625 312.433594 C 262.472656 311.980469 262.429688 311.523438 262.429688 311.058594 C 262.429688 310.597656 262.472656 310.140625 262.5625 309.683594 C 262.652344 309.230469 262.789062 308.789062 262.964844 308.363281 C 263.140625 307.933594 263.359375 307.53125 263.617188 307.144531 C 263.871094 306.761719 264.164062 306.402344 264.492188 306.078125 C 264.820312 305.75 265.175781 305.457031 265.558594 305.199219 C 265.941406 304.941406 266.347656 304.726562 266.777344 304.550781 C 267.203125 304.371094 267.644531 304.238281 268.097656 304.148438 C 268.550781 304.058594 269.007812 304.011719 269.472656 304.011719 C 269.933594 304.011719 270.390625 304.058594 270.84375 304.148438 C 271.296875 304.238281 271.738281 304.371094 272.167969 304.550781 C 272.59375 304.726562 273 304.941406 273.382812 305.199219 C 273.769531 305.457031 274.125 305.75 274.449219 306.078125 C 274.777344 306.402344 275.070312 306.761719 275.328125 307.144531 C 275.582031 307.53125 275.800781 307.933594 275.976562 308.363281 C 276.15625 308.789062 276.289062 309.230469 276.378906 309.683594 C 276.46875 310.140625 276.515625 310.597656 276.515625 311.058594 Z M 276.515625 311.058594 " fill-opacity="1" fill-rule="nonzero"/><path fill="#000000" d="M 433.113281 319.839844 C 433.113281 320.300781 433.070312 320.761719 432.976562 321.214844 C 432.886719 321.667969 432.753906 322.109375 432.578125 322.535156 C 432.402344 322.964844 432.183594 323.371094 431.925781 323.753906 C 431.667969 324.140625 431.378906 324.496094 431.050781 324.824219 C 430.722656 325.148438 430.367188 325.441406 429.984375 325.699219 C 429.597656 325.957031 429.191406 326.171875 428.765625 326.351562 C 428.339844 326.527344 427.898438 326.660156 427.445312 326.75 C 426.992188 326.839844 426.535156 326.886719 426.070312 326.886719 C 425.609375 326.886719 425.152344 326.839844 424.695312 326.75 C 424.242188 326.660156 423.804688 326.527344 423.375 326.351562 C 422.949219 326.171875 422.542969 325.957031 422.160156 325.699219 C 421.773438 325.441406 421.417969 325.148438 421.089844 324.824219 C 420.765625 324.496094 420.472656 324.140625 420.214844 323.753906 C 419.957031 323.371094 419.742188 322.964844 419.566406 322.535156 C 419.386719 322.109375 419.253906 321.667969 419.164062 321.214844 C 419.074219 320.761719 419.027344 320.300781 419.027344 319.839844 C 419.027344 319.375 419.074219 318.917969 419.164062 318.464844 C 419.253906 318.011719 419.386719 317.570312 419.566406 317.140625 C 419.742188 316.714844 419.957031 316.308594 420.214844 315.921875 C 420.472656 315.539062 420.765625 315.183594 421.089844 314.855469 C 421.417969 314.527344 421.773438 314.234375 422.160156 313.980469 C 422.542969 313.722656 422.949219 313.503906 423.375 313.328125 C 423.804688 313.152344 424.242188 313.015625 424.695312 312.925781 C 425.152344 312.835938 425.609375 312.792969 426.070312 312.792969 C 426.535156 312.792969 426.992188 312.835938 427.445312 312.925781 C 427.898438 313.015625 428.339844 313.152344 428.765625 313.328125 C 429.191406 313.503906 429.597656 313.722656 429.984375 313.980469 C 430.367188 314.234375 430.722656 314.527344 431.050781 314.855469 C 431.378906 315.183594 431.667969 315.539062 431.925781 315.921875 C 432.183594 316.308594 432.402344 316.714844 432.578125 317.140625 C 432.753906 317.570312 432.886719 318.011719 432.976562 318.464844 C 433.070312 318.917969 433.113281 319.375 433.113281 319.839844 Z M 433.113281 319.839844 " fill-opacity="1" fill-rule="nonzero"/><g clip-path="url(#f5c24dd697)"><path fill="#000000" d="M 389.925781 293.578125 C 389.925781 294.269531 389.859375 294.957031 389.722656 295.632812 C 389.589844 296.3125 389.390625 296.972656 389.125 297.613281 C 388.859375 298.25 388.535156 298.859375 388.152344 299.433594 C 387.769531 300.007812 387.332031 300.542969 386.84375 301.03125 C 386.351562 301.519531 385.820312 301.957031 385.246094 302.339844 C 384.671875 302.726562 384.066406 303.050781 383.425781 303.316406 C 382.789062 303.578125 382.128906 303.78125 381.449219 303.914062 C 380.773438 304.050781 380.085938 304.117188 379.394531 304.117188 C 378.703125 304.117188 378.019531 304.050781 377.339844 303.914062 C 376.664062 303.78125 376.003906 303.578125 375.367188 303.316406 C 374.726562 303.050781 374.121094 302.726562 373.546875 302.339844 C 372.972656 301.957031 372.4375 301.519531 371.949219 301.03125 C 371.460938 300.542969 371.023438 300.007812 370.640625 299.433594 C 370.257812 298.859375 369.933594 298.25 369.667969 297.613281 C 369.402344 296.972656 369.203125 296.3125 369.066406 295.632812 C 368.933594 294.957031 368.867188 294.269531 368.867188 293.578125 C 368.867188 292.886719 368.933594 292.203125 369.066406 291.523438 C 369.203125 290.84375 369.402344 290.183594 369.667969 289.546875 C 369.933594 288.90625 370.257812 288.300781 370.640625 287.722656 C 371.023438 287.148438 371.460938 286.617188 371.949219 286.125 C 372.4375 285.636719 372.972656 285.199219 373.546875 284.816406 C 374.121094 284.433594 374.726562 284.105469 375.367188 283.84375 C 376.003906 283.578125 376.664062 283.378906 377.339844 283.242188 C 378.019531 283.109375 378.703125 283.039062 379.394531 283.039062 C 380.085938 283.039062 380.773438 283.109375 381.449219 283.242188 C 382.128906 283.378906 382.789062 283.578125 383.425781 283.84375 C 384.066406 284.105469 384.671875 284.433594 385.246094 284.816406 C 385.820312 285.199219 386.351562 285.636719 386.84375 286.125 C 387.332031 286.617188 387.769531 287.148438 388.152344 287.722656 C 388.535156 288.300781 388.859375 288.90625 389.125 289.546875 C 389.390625 290.183594 389.589844 290.84375 389.722656 291.523438 C 389.859375 292.203125 389.925781 292.886719 389.925781 293.578125 Z M 389.925781 293.578125 " fill-opacity="1" fill-rule="nonzero"/></g><path fill="#000000" d="M 357.699219 337.425781 C 357.699219 338.117188 357.628906 338.800781 357.496094 339.480469 C 357.359375 340.160156 357.160156 340.820312 356.898438 341.457031 C 356.632812 342.097656 356.308594 342.703125 355.921875 343.28125 C 355.539062 343.855469 355.101562 344.386719 354.613281 344.875 C 354.125 345.367188 353.59375 345.804688 353.019531 346.1875 C 352.441406 346.570312 351.835938 346.894531 351.199219 347.160156 C 350.558594 347.425781 349.898438 347.625 349.222656 347.761719 C 348.542969 347.894531 347.859375 347.964844 347.167969 347.964844 C 346.476562 347.964844 345.792969 347.894531 345.113281 347.761719 C 344.433594 347.625 343.777344 347.425781 343.136719 347.160156 C 342.5 346.894531 341.890625 346.570312 341.316406 346.1875 C 340.742188 345.804688 340.210938 345.367188 339.722656 344.875 C 339.234375 344.386719 338.796875 343.855469 338.410156 343.28125 C 338.027344 342.703125 337.703125 342.097656 337.4375 341.457031 C 337.175781 340.820312 336.972656 340.160156 336.839844 339.480469 C 336.703125 338.800781 336.636719 338.117188 336.636719 337.425781 C 336.636719 336.734375 336.703125 336.046875 336.839844 335.367188 C 336.972656 334.691406 337.175781 334.03125 337.4375 333.390625 C 337.703125 332.753906 338.027344 332.144531 338.410156 331.570312 C 338.796875 330.996094 339.234375 330.460938 339.722656 329.972656 C 340.210938 329.484375 340.742188 329.046875 341.316406 328.664062 C 341.890625 328.277344 342.5 327.953125 343.136719 327.6875 C 343.777344 327.425781 344.433594 327.222656 345.113281 327.089844 C 345.792969 326.953125 346.476562 326.886719 347.167969 326.886719 C 347.859375 326.886719 348.542969 326.953125 349.222656 327.089844 C 349.898438 327.222656 350.558594 327.425781 351.199219 327.6875 C 351.835938 327.953125 352.441406 328.277344 353.019531 328.664062 C 353.59375 329.046875 354.125 329.484375 354.613281 329.972656 C 355.101562 330.460938 355.539062 330.996094 355.921875 331.570312 C 356.308594 332.144531 356.632812 332.753906 356.898438 333.390625 C 357.160156 334.03125 357.359375 334.691406 357.496094 335.367188 C 357.628906 336.046875 357.699219 336.734375 357.699219 337.425781 Z M 357.699219 337.425781 " fill-opacity="1" fill-rule="nonzero"/><path fill="#000000" d="M 417.5 387.5 C 417.5 388.515625 417.398438 389.519531 417.203125 390.511719 C 417.003906 391.507812 416.710938 392.472656 416.324219 393.410156 C 415.9375 394.34375 415.460938 395.234375 414.898438 396.078125 C 414.335938 396.917969 413.695312 397.699219 412.980469 398.417969 C 412.265625 399.132812 411.484375 399.773438 410.644531 400.335938 C 409.800781 400.898438 408.910156 401.375 407.976562 401.761719 C 407.039062 402.152344 406.074219 402.441406 405.082031 402.640625 C 404.089844 402.839844 403.085938 402.9375 402.074219 402.9375 C 401.058594 402.9375 400.058594 402.839844 399.0625 402.640625 C 398.070312 402.441406 397.105469 402.152344 396.171875 401.761719 C 395.234375 401.375 394.34375 400.898438 393.503906 400.335938 C 392.660156 399.773438 391.882812 399.132812 391.164062 398.417969 C 390.449219 397.699219 389.808594 396.917969 389.246094 396.078125 C 388.683594 395.234375 388.210938 394.34375 387.820312 393.410156 C 387.433594 392.472656 387.140625 391.507812 386.945312 390.511719 C 386.746094 389.519531 386.648438 388.515625 386.648438 387.5 C 386.648438 386.488281 386.746094 385.484375 386.945312 384.488281 C 387.140625 383.496094 387.433594 382.53125 387.820312 381.59375 C 388.210938 380.65625 388.683594 379.769531 389.246094 378.925781 C 389.808594 378.082031 390.449219 377.300781 391.164062 376.585938 C 391.882812 375.867188 392.660156 375.230469 393.503906 374.664062 C 394.34375 374.101562 395.234375 373.628906 396.171875 373.238281 C 397.105469 372.851562 398.070312 372.558594 399.0625 372.359375 C 400.058594 372.164062 401.058594 372.066406 402.074219 372.066406 C 403.085938 372.066406 404.089844 372.164062 405.082031 372.359375 C 406.074219 372.558594 407.039062 372.851562 407.976562 373.238281 C 408.910156 373.628906 409.800781 374.101562 410.644531 374.664062 C 411.484375 375.230469 412.265625 375.867188 412.980469 376.585938 C 413.695312 377.300781 414.335938 378.082031 414.898438 378.925781 C 415.460938 379.769531 415.9375 380.65625 416.324219 381.59375 C 416.710938 382.53125 417.003906 383.496094 417.203125 384.488281 C 417.398438 385.484375 417.5 386.488281 417.5 387.5 Z M 417.5 387.5 " fill-opacity="1" fill-rule="nonzero"/><path fill="#000000" d="M 386.058594 452.320312 L 219.632812 407.644531 C 215.375 406.484375 210.90625 408.433594 208.804688 412.304688 C 190.824219 445.613281 175.511719 484.894531 164.515625 525.898438 C 133.382812 642.046875 142.019531 747.980469 184.363281 783.628906 L 138.179688 955.90625 C 129.742188 987.378906 115.5625 1008.433594 102.046875 1009.558594 C 90.136719 1010.535156 79.597656 1010.414062 70.285156 1010.300781 C 51.617188 1010.097656 36.820312 1009.910156 33.339844 1022.902344 C 30.289062 1034.246094 39.539062 1045.640625 61.625 1057.710938 C 77.507812 1066.40625 98.804688 1074.726562 122.183594 1081.460938 C 123.183594 1082.269531 124.34375 1082.898438 125.664062 1083.25 C 132.289062 1085.039062 170.703125 1094.96875 201.210938 1094.96875 C 220.222656 1094.96875 236.167969 1091.105469 239.417969 1078.988281 C 242.898438 1065.988281 230.039062 1058.75 213.757812 1049.570312 C 205.640625 1045.003906 196.441406 1039.820312 186.613281 1032.992188 C 175.476562 1025.269531 173.726562 999.941406 182.167969 968.480469 L 228.535156 795.492188 C 283.042969 785.828125 343.5 698.46875 374.652344 582.28125 C 385.640625 541.277344 392.027344 499.609375 393.109375 461.753906 C 393.226562 457.371094 390.316406 453.460938 386.058594 452.320312 Z M 222.027344 427.980469 L 373.808594 468.714844 C 372.535156 495.777344 368.4375 524.707031 361.964844 553.785156 C 348.554688 554.792969 331.105469 544.035156 311.195312 531.652344 C 298.878906 523.996094 284.914062 515.3125 270.023438 508.40625 C 240.492188 494.710938 210.449219 496.230469 192.46875 499.132812 C 200.890625 473.816406 210.839844 449.65625 222.027344 427.980469 Z M 220.457031 777.53125 C 216.199219 777.75 212.882812 780.796875 211.875 784.722656 C 211.800781 784.941406 211.628906 785.105469 211.570312 785.332031 L 163.792969 963.5625 C 158.578125 983.019531 149.300781 1030.273438 175.769531 1048.628906 C 186.328125 1055.960938 196.367188 1061.613281 204.425781 1066.15625 C 209.195312 1068.839844 214.773438 1071.988281 218.242188 1074.402344 C 208.199219 1077.238281 179.886719 1077.21875 137.316406 1066.546875 C 136.488281 1065.996094 135.625 1065.472656 134.605469 1065.195312 C 88.160156 1052.726562 61.597656 1037.414062 53.957031 1029.53125 C 58.175781 1029.1875 64.570312 1029.265625 70.054688 1029.320312 C 79.3125 1029.433594 90.800781 1029.570312 103.613281 1028.511719 C 135.730469 1025.859375 151.335938 980.300781 156.542969 960.832031 L 204.128906 783.335938 C 204.207031 783.03125 204.128906 782.746094 204.1875 782.429688 C 205.183594 778.589844 203.808594 774.386719 200.289062 772.09375 C 165.941406 749.703125 150.042969 653.347656 182.878906 530.824219 C 183.875 527.097656 185.066406 523.480469 186.140625 519.792969 C 197.734375 516.976562 230.695312 511.117188 262.03125 525.667969 C 275.867188 532.097656 288.734375 540.089844 301.167969 547.820312 C 321.582031 560.507812 339.820312 571.730469 357.382812 572.816406 C 356.984375 574.335938 356.691406 575.859375 356.28125 577.371094 C 323.40625 699.96875 261.410156 775.421875 220.457031 777.53125 Z M 220.457031 777.53125 " fill-opacity="1" fill-rule="nonzero"/><path fill="#000000" d="M 777.050781 1022.910156 C 773.570312 1009.910156 758.839844 1010.089844 740.105469 1010.300781 C 730.8125 1010.433594 720.261719 1010.535156 708.34375 1009.558594 C 694.828125 1008.445312 680.640625 987.378906 672.210938 955.90625 L 626.019531 783.640625 C 668.371094 747.992188 677.007812 642.046875 645.875 525.898438 C 634.878906 484.90625 619.566406 445.632812 601.585938 412.304688 C 599.492188 408.433594 595.027344 406.496094 590.757812 407.644531 L 424.332031 452.320312 C 420.082031 453.460938 417.175781 457.371094 417.296875 461.773438 C 418.382812 499.609375 424.757812 541.277344 435.753906 582.296875 C 466.910156 698.484375 527.367188 785.847656 581.871094 795.507812 L 628.242188 968.496094 C 636.683594 999.96875 634.933594 1025.289062 623.796875 1033.019531 C 613.957031 1039.839844 604.769531 1045.023438 596.652344 1049.589844 C 580.371094 1058.765625 567.511719 1066.003906 570.992188 1079.007812 C 574.242188 1091.125 590.179688 1094.996094 609.1875 1094.996094 C 639.695312 1094.996094 678.121094 1085.046875 684.746094 1083.269531 C 686.066406 1082.917969 687.226562 1082.277344 688.222656 1081.480469 C 711.605469 1074.746094 732.902344 1066.425781 748.785156 1057.730469 C 770.84375 1045.640625 780.101562 1034.246094 777.050781 1022.910156 Z M 588.355469 427.980469 C 599.539062 449.65625 609.492188 473.804688 617.914062 499.132812 C 599.929688 496.222656 569.886719 494.699219 540.359375 508.40625 C 525.476562 515.320312 511.511719 524.003906 499.1875 531.652344 C 479.273438 544.042969 461.808594 554.753906 448.414062 553.773438 C 441.941406 524.679688 437.847656 495.757812 436.5625 468.714844 Z M 675.773438 1065.195312 C 674.757812 1065.464844 673.890625 1065.996094 673.066406 1066.546875 C 630.496094 1077.21875 602.171875 1077.257812 592.136719 1074.414062 C 595.605469 1071.996094 601.183594 1068.847656 605.957031 1066.167969 C 614.015625 1061.621094 624.050781 1055.980469 634.609375 1048.648438 C 661.089844 1030.273438 651.804688 983.03125 646.585938 963.570312 L 598.808594 785.34375 C 598.742188 785.113281 598.582031 784.941406 598.496094 784.714844 C 597.488281 780.796875 594.160156 777.769531 589.914062 777.542969 C 548.96875 775.421875 486.964844 699.980469 454.097656 577.382812 C 453.691406 575.867188 453.394531 574.347656 452.996094 572.824219 C 470.550781 571.730469 488.796875 560.519531 509.214844 547.828125 C 521.652344 540.097656 534.511719 532.109375 548.351562 525.679688 C 579.507812 511.210938 612.609375 517.03125 624.25 519.820312 C 625.316406 523.5 626.503906 527.125 627.5 530.832031 C 660.339844 653.355469 644.4375 749.722656 610.089844 772.101562 C 606.582031 774.394531 605.195312 778.589844 606.195312 782.429688 C 606.242188 782.734375 606.164062 783.03125 606.25 783.34375 L 653.835938 960.839844 C 659.054688 980.308594 674.652344 1025.867188 706.765625 1028.53125 C 719.578125 1029.578125 731.078125 1029.445312 740.316406 1029.332031 C 745.789062 1029.253906 752.207031 1029.1875 756.417969 1029.539062 C 748.785156 1037.414062 722.21875 1052.738281 675.773438 1065.195312 Z M 675.773438 1065.195312 " fill-opacity="1" fill-rule="nonzero"/></svg>