<svg xmlns="http://www.w3.org/2000/svg" xmlns:xlink="http://www.w3.org/1999/xlink" width="1080" zoomAndPan="magnify" viewBox="0 0 810 1094.999951" height="1460" preserveAspectRatio="xMidYMid meet" version="1.0"><path fill="#000000" d="M 622.761719 979.425781 L 615.648438 997.0625 C 613.109375 1003.367188 607.046875 1007.183594 600.644531 1007.183594 C 598.625 1007.183594 596.570312 1006.8125 594.597656 1006.019531 C 586.304688 1002.671875 582.3125 993.246094 585.640625 984.96875 L 592.753906 967.332031 C 596.101562 959.039062 605.609375 955.09375 613.804688 958.375 C 622.097656 961.722656 626.09375 971.148438 622.761719 979.425781 Z M 807.21875 908.222656 C 803.871094 916.53125 794.429688 920.492188 786.183594 917.195312 L 724.859375 892.523438 L 652.269531 1072.355469 C 649.730469 1078.644531 643.667969 1082.460938 637.265625 1082.460938 C 635.242188 1082.460938 633.191406 1082.089844 631.21875 1081.296875 L 526.273438 1038.9375 C 517.980469 1035.589844 513.984375 1026.164062 517.316406 1017.886719 L 602.050781 808 C 605.398438 799.703125 614.90625 795.777344 623.101562 799.042969 L 728.046875 841.402344 C 732.023438 843.019531 735.191406 846.136719 736.875 850.082031 C 738.554688 854.027344 738.585938 858.492188 737.003906 862.453125 L 736.972656 862.53125 L 798.246094 887.1875 C 806.539062 890.519531 810.550781 899.945312 807.21875 908.222656 Z M 700.949219 865.328125 L 625.996094 835.078125 L 553.371094 1014.976562 L 628.308594 1045.226562 C 628.308594 1045.226562 628.308594 1045.210938 628.308594 1045.210938 L 700.902344 865.425781 C 700.902344 865.410156 700.917969 865.410156 700.917969 865.394531 Z M 0 678.269531 C 0 669.328125 7.242188 662.101562 16.167969 662.101562 L 662.875 662.101562 C 671.816406 662.101562 679.042969 669.328125 679.042969 678.269531 C 679.042969 687.210938 671.816406 694.4375 662.875 694.4375 L 541.488281 694.4375 C 544.121094 701.859375 545.15625 709.828125 543.960938 717.800781 L 534.859375 778.558594 C 533.808594 785.542969 537.363281 792.347656 543.703125 795.453125 L 566.273438 806.574219 C 574.292969 810.519531 577.574219 820.222656 573.644531 828.222656 C 569.714844 836.242188 560 839.527344 551.996094 835.597656 L 529.425781 824.472656 C 510.398438 815.097656 499.726562 794.726562 502.863281 773.753906 L 511.964844 712.996094 C 512.675781 708.277344 511.351562 703.667969 508.246094 700.046875 C 505.109375 696.425781 500.777344 694.4375 495.992188 694.4375 L 490.1875 694.4375 C 483.71875 694.4375 477.882812 698.285156 475.328125 704.234375 L 445.226562 774.46875 C 436.414062 795.066406 414.796875 806.949219 392.679688 803.214844 L 329.59375 792.703125 C 320.832031 791.234375 312.699219 787.433594 306.003906 781.679688 L 217.84375 706.09375 C 209.03125 698.59375 197.828125 694.4375 186.269531 694.4375 L 169.761719 694.4375 C 165.296875 694.4375 161.675781 698.074219 161.675781 702.519531 C 161.675781 704.332031 162.242188 706.046875 163.261719 707.417969 L 277.566406 861.902344 C 282.609375 868.722656 289.402344 874.140625 297.179688 877.519531 L 496.878906 964.582031 C 505.078125 968.15625 508.8125 977.695312 505.253906 985.859375 C 502.605469 991.9375 496.65625 995.574219 490.414062 995.574219 C 488.261719 995.574219 486.066406 995.15625 483.980469 994.234375 L 284.277344 907.171875 C 271.308594 901.511719 260.007812 892.523438 251.601562 881.140625 L 137.296875 726.660156 C 132.15625 719.738281 129.339844 711.21875 129.339844 702.617188 C 129.339844 699.820312 129.632812 697.089844 130.164062 694.4375 L 16.167969 694.4375 C 7.242188 694.4375 0 687.210938 0 678.269531 Z M 444.351562 694.4375 L 253.898438 694.4375 L 327.039062 757.152344 C 329.269531 759.042969 332.003906 760.320312 334.929688 760.820312 L 397.984375 771.332031 C 405.355469 772.460938 412.550781 768.613281 415.492188 761.757812 Z M 598.203125 629.765625 C 598.203125 638.707031 605.429688 645.933594 614.371094 645.933594 C 623.3125 645.933594 630.539062 638.707031 630.539062 629.765625 C 630.539062 474.765625 508.617188 348.027344 355.6875 339.574219 L 355.6875 306.414062 L 371.855469 306.414062 C 380.78125 306.414062 388.023438 299.1875 388.023438 290.246094 C 388.023438 281.304688 380.78125 274.078125 371.855469 274.078125 L 307.1875 274.078125 C 298.261719 274.078125 291.019531 281.304688 291.019531 290.246094 C 291.019531 299.1875 298.261719 306.414062 307.1875 306.414062 L 323.351562 306.414062 L 323.351562 339.574219 C 170.421875 348.027344 48.503906 474.765625 48.503906 629.765625 C 48.503906 638.707031 55.746094 645.933594 64.671875 645.933594 C 73.59375 645.933594 80.839844 638.707031 80.839844 629.765625 C 80.839844 487.136719 196.890625 371.082031 339.519531 371.082031 C 482.152344 371.082031 598.203125 487.136719 598.203125 629.765625 Z M 391.757812 409.464844 C 383.09375 407.507812 374.363281 412.796875 372.308594 421.476562 C 370.253906 430.175781 375.640625 438.875 384.320312 440.945312 C 426.097656 450.804688 463.996094 474.832031 491.011719 508.542969 C 494.195312 512.535156 498.886719 514.605469 503.640625 514.605469 C 507.179688 514.605469 510.738281 513.441406 513.726562 511.046875 C 520.710938 505.46875 521.828125 495.285156 516.234375 488.332031 C 484.738281 449.011719 440.535156 421.007812 391.757812 409.464844 Z M 391.757812 409.464844 " fill-opacity="1" fill-rule="nonzero"/></svg>