<svg xmlns="http://www.w3.org/2000/svg" xmlns:xlink="http://www.w3.org/1999/xlink" width="1080" zoomAndPan="magnify" viewBox="0 0 810 1094.999951" height="1460" preserveAspectRatio="xMidYMid meet" version="1.0"><defs><clipPath id="7a86e92cb4"><path d="M 0 284 L 810 284 L 810 1094.808594 L 0 1094.808594 Z M 0 284 " clip-rule="nonzero"/></clipPath></defs><g clip-path="url(#7a86e92cb4)"><path fill="#000000" d="M 652.726562 684.933594 L 610.285156 570.871094 C 607.164062 559.902344 600.160156 550.285156 590.539062 543.875 L 499.753906 484.816406 C 482.117188 473.34375 464.484375 468.027344 444.152344 468.027344 L 343.996094 468.027344 L 290.925781 432.679688 L 247.554688 316.257812 C 243.085938 304.191406 234.140625 294.574219 222.414062 289.257812 C 210.769531 283.945312 197.691406 283.4375 185.625 287.910156 C 160.734375 297.191406 147.992188 324.945312 157.273438 349.832031 L 204.863281 477.644531 C 207.984375 488.613281 214.988281 498.230469 224.523438 504.558594 L 315.648438 565.300781 L 204.777344 854.929688 C 204.777344 855.011719 204.777344 855.011719 204.695312 855.097656 C 202.414062 861.339844 201.234375 867.667969 201.234375 873.824219 L 201.234375 1039.605469 C 201.234375 1069.976562 225.957031 1094.695312 256.332031 1094.695312 C 286.707031 1094.695312 311.429688 1069.976562 311.429688 1039.605469 L 311.429688 883.191406 L 341.382812 800.933594 L 359.691406 877.539062 C 360.703125 881.671875 362.136719 885.636719 363.996094 889.433594 L 431.660156 1047.703125 C 437.398438 1061.203125 448.117188 1071.664062 461.699219 1077.144531 C 475.285156 1082.628906 490.304688 1082.460938 503.804688 1076.722656 C 531.730469 1064.828125 544.726562 1032.515625 532.828125 1004.59375 L 465.835938 847.925781 L 442.125 748.207031 C 437.90625 730.574219 437.230469 700.371094 445.667969 675.902344 L 476.804688 585.464844 L 524.222656 616.003906 L 562.445312 718.59375 C 566.914062 730.65625 575.859375 740.277344 587.585938 745.589844 C 599.316406 750.90625 612.394531 751.410156 624.460938 746.941406 C 649.265625 737.660156 662.007812 709.820312 652.726562 684.933594 Z M 580.921875 711.675781 L 541.601562 605.964844 C 540.84375 603.941406 539.492188 602.253906 537.722656 601.074219 L 476.972656 562.011719 C 474.441406 560.410156 471.234375 559.988281 468.367188 561 C 465.496094 562.011719 463.21875 564.207031 462.292969 567.074219 L 426.9375 669.410156 C 417.148438 697.757812 417.824219 731.671875 422.886719 752.761719 L 446.933594 853.496094 C 447.105469 854 447.273438 854.589844 447.441406 855.097656 L 514.769531 1012.4375 C 522.367188 1030.324219 514.011719 1051.078125 496.125 1058.671875 C 487.433594 1062.382812 477.898438 1062.46875 469.125 1058.921875 C 460.433594 1055.378906 453.515625 1048.714844 449.886719 1040.023438 L 382.050781 881.417969 C 381.964844 881.25 381.882812 880.996094 381.796875 880.828125 C 380.53125 878.382812 379.601562 875.683594 378.929688 872.980469 L 353.027344 764.320312 C 352.011719 760.101562 348.300781 756.980469 343.996094 756.726562 C 339.609375 756.472656 335.644531 759.089844 334.125 763.222656 L 292.359375 878.042969 C 291.9375 879.140625 291.769531 880.238281 291.769531 881.417969 L 291.769531 1039.605469 C 291.769531 1059.089844 275.90625 1074.953125 256.414062 1074.953125 C 236.925781 1074.953125 221.0625 1059.089844 221.0625 1039.605469 L 221.0625 873.824219 C 221.0625 869.945312 221.820312 865.980469 223.253906 861.929688 L 336.910156 564.964844 C 338.597656 560.660156 336.992188 555.769531 333.195312 553.238281 L 235.492188 488.109375 C 229.753906 484.3125 225.617188 478.574219 223.761719 471.910156 C 223.679688 471.65625 223.59375 471.320312 223.511719 471.066406 L 175.839844 343 C 170.351562 328.320312 177.863281 311.953125 192.542969 306.46875 C 199.632812 303.855469 207.394531 304.109375 214.3125 307.230469 C 221.230469 310.351562 226.464844 316.003906 229.160156 323.175781 L 273.628906 442.636719 C 274.386719 444.574219 275.652344 446.261719 277.425781 447.441406 L 335.644531 486.253906 C 337.246094 487.347656 339.1875 487.9375 341.128906 487.9375 L 444.320312 487.9375 C 460.601562 487.9375 474.863281 492.242188 489.121094 501.523438 L 579.824219 560.578125 C 585.5625 564.375 589.695312 570.109375 591.554688 576.773438 C 591.636719 577.03125 591.722656 577.367188 591.804688 577.617188 L 634.417969 692.019531 C 639.898438 706.699219 632.390625 723.066406 617.710938 728.546875 C 602.773438 733.863281 586.40625 726.355469 580.921875 711.675781 Z M 419.257812 452.925781 C 457.988281 452.925781 489.542969 421.375 489.542969 382.652344 C 489.542969 343.929688 457.988281 312.375 419.257812 312.375 C 380.53125 312.375 348.976562 343.929688 348.976562 382.652344 C 348.976562 421.375 380.53125 452.925781 419.257812 452.925781 Z M 419.257812 332.117188 C 447.105469 332.117188 469.800781 354.8125 469.800781 382.652344 C 469.800781 410.492188 447.105469 433.1875 419.257812 433.1875 C 391.417969 433.1875 368.71875 410.492188 368.71875 382.652344 C 368.71875 354.8125 391.417969 332.117188 419.257812 332.117188 Z M 155.082031 599.808594 L 53.664062 618.789062 C 49.023438 619.632812 45.5625 623.765625 45.5625 628.492188 L 45.5625 717.328125 C 41.597656 715.640625 37.210938 714.628906 32.652344 714.628906 C 14.679688 714.628906 0 729.308594 0 747.363281 C 0 765.417969 14.679688 780.011719 32.652344 780.011719 C 50.625 780.011719 65.304688 765.332031 65.304688 747.363281 L 65.304688 636.675781 L 146.898438 621.40625 L 146.898438 698.347656 C 142.929688 696.65625 138.542969 695.644531 133.988281 695.644531 C 115.929688 695.644531 101.335938 710.328125 101.335938 728.296875 C 101.335938 746.265625 116.015625 760.945312 133.988281 760.945312 C 152.042969 760.945312 166.640625 746.265625 166.640625 728.296875 L 166.640625 609.507812 C 166.640625 606.558594 165.375 603.773438 163.097656 601.917969 C 160.902344 600.058594 157.949219 599.300781 155.082031 599.808594 Z M 32.652344 760.269531 C 25.566406 760.269531 19.742188 754.449219 19.742188 747.363281 C 19.742188 740.277344 25.566406 734.453125 32.652344 734.453125 C 39.742188 734.453125 45.5625 740.277344 45.5625 747.363281 C 45.648438 754.449219 39.824219 760.269531 32.652344 760.269531 Z M 134.070312 741.289062 C 126.984375 741.289062 121.164062 735.46875 121.164062 728.378906 C 121.164062 721.292969 126.984375 715.472656 134.070312 715.472656 C 141.160156 715.472656 146.980469 721.292969 146.980469 728.378906 C 146.980469 735.46875 141.160156 741.289062 134.070312 741.289062 Z M 806.457031 287.148438 C 804.179688 285.292969 801.222656 284.535156 798.355469 285.039062 L 696.9375 304.023438 C 692.296875 304.867188 688.835938 309 688.835938 313.726562 L 688.835938 402.5625 C 684.871094 400.875 680.484375 399.863281 675.929688 399.863281 C 657.871094 399.863281 643.273438 414.542969 643.273438 432.511719 C 643.273438 450.566406 657.957031 465.160156 675.929688 465.160156 C 693.898438 465.160156 708.582031 450.480469 708.582031 432.511719 L 708.582031 321.910156 L 790.171875 306.636719 L 790.171875 383.578125 C 786.207031 381.890625 781.820312 380.878906 777.261719 380.878906 C 759.207031 380.878906 744.609375 395.558594 744.609375 413.527344 C 744.609375 431.5 759.289062 446.179688 777.261719 446.179688 C 795.234375 446.179688 810 431.667969 810 413.613281 L 810 294.742188 C 810 291.789062 808.652344 289.007812 806.457031 287.148438 Z M 675.929688 445.503906 C 668.839844 445.503906 663.019531 439.683594 663.019531 432.597656 C 663.019531 425.507812 668.839844 419.6875 675.929688 419.6875 C 683.015625 419.6875 688.835938 425.507812 688.835938 432.597656 C 688.835938 439.683594 683.015625 445.503906 675.929688 445.503906 Z M 777.347656 426.519531 C 770.261719 426.519531 764.4375 420.699219 764.4375 413.613281 C 764.4375 406.527344 770.261719 400.707031 777.347656 400.707031 C 784.433594 400.707031 790.257812 406.527344 790.257812 413.613281 C 790.257812 420.785156 784.433594 426.519531 777.347656 426.519531 Z M 716.597656 839.40625 L 675.253906 833.5 C 672.382812 833.078125 669.515625 833.921875 667.40625 835.777344 C 665.210938 837.632812 664.03125 840.332031 664.03125 843.203125 L 664.03125 932.039062 C 660.066406 930.351562 655.679688 929.339844 651.121094 929.339844 C 633.066406 929.339844 618.46875 944.015625 618.46875 961.988281 C 618.46875 980.042969 633.148438 994.636719 651.121094 994.636719 C 669.09375 994.636719 683.773438 979.957031 683.773438 961.988281 L 683.773438 854.675781 L 713.898438 858.976562 C 719.296875 859.738281 724.273438 856.023438 725.035156 850.625 C 725.792969 845.226562 721.996094 840.164062 716.597656 839.40625 Z M 651.039062 975.0625 C 643.949219 975.0625 638.128906 969.242188 638.128906 962.15625 C 638.128906 955.070312 643.949219 949.25 651.039062 949.25 C 658.125 949.25 663.949219 955.070312 663.949219 962.15625 C 663.949219 969.242188 658.210938 975.0625 651.039062 975.0625 Z M 651.039062 975.0625 " fill-opacity="1" fill-rule="nonzero"/></g></svg>