<svg xmlns="http://www.w3.org/2000/svg" xmlns:xlink="http://www.w3.org/1999/xlink" width="1080" zoomAndPan="magnify" viewBox="0 0 810 1094.999951" height="1460" preserveAspectRatio="xMidYMid meet" version="1.0"><defs><clipPath id="a149919085"><path d="M 472 124 L 809.347656 124 L 809.347656 630.425781 L 472 630.425781 Z M 472 124 " clip-rule="nonzero"/></clipPath><clipPath id="db7fc84701"><path d="M 299 25.003906 L 603 25.003906 L 603 110 L 299 110 Z M 299 25.003906 " clip-rule="nonzero"/></clipPath><clipPath id="2dfef93c24"><path d="M 11 202 L 443 202 L 443 1084.003906 L 11 1084.003906 Z M 11 202 " clip-rule="nonzero"/></clipPath></defs><g clip-path="url(#a149919085)"><path fill="#000000" d="M 572.429688 351.570312 C 572.921875 359.433594 572.742188 366.933594 571.875 374.0625 C 571.023438 381.175781 568.878906 388.179688 565.429688 395.046875 C 555.363281 392.355469 545.898438 388.738281 537.054688 384.179688 C 528.214844 379.632812 521.339844 374.183594 516.429688 367.789062 C 514.460938 365.097656 513.476562 363.003906 513.476562 361.535156 C 513.476562 360.285156 513.914062 359.308594 514.765625 358.574219 C 515.636719 357.839844 516.183594 356.726562 516.429688 355.257812 C 516.429688 351.082031 512.867188 349.613281 505.746094 350.835938 C 502.792969 351.328125 499.910156 353.722656 497.082031 358.015625 C 494.265625 362.3125 493.699219 368.03125 495.421875 375.160156 C 496.90625 381.296875 502.371094 387.691406 511.8125 394.3125 C 521.28125 400.953125 532.636719 406.480469 545.898438 410.902344 C 543.199219 412.367188 539.214844 412.4375 533.925781 411.085938 C 528.652344 409.726562 523.058594 407.28125 517.164062 403.710938 C 511.265625 400.152344 505.503906 395.554688 499.851562 389.890625 C 494.207031 384.246094 489.769531 377.734375 486.578125 370.378906 C 483.878906 364.464844 482.53125 358.210938 482.53125 351.570312 C 482.53125 346.90625 483.324219 342.601562 484.925781 338.671875 C 486.519531 334.757812 489.035156 331.558594 492.46875 329.09375 C 497.152344 325.914062 503.105469 324.75 510.34375 325.601562 C 517.59375 326.460938 525.085938 328.359375 532.820312 331.3125 C 540.558594 334.25 548 337.640625 555.117188 341.429688 C 562.238281 345.261719 568.011719 348.636719 572.429688 351.570312 Z M 600.449219 371.472656 C 606.582031 376.628906 611.121094 381.65625 614.074219 386.578125 C 615.054688 388.054688 615.363281 389.714844 615.003906 391.554688 C 614.613281 393.402344 613.585938 394.683594 611.855469 395.410156 C 607.191406 397.394531 601.425781 398.421875 594.535156 398.558594 C 587.660156 398.683594 580.539062 398 573.164062 396.53125 C 576.109375 390.136719 578.269531 383.445312 579.617188 376.453125 C 580.96875 369.449219 581.035156 362.75 579.796875 356.355469 C 587.421875 361.289062 594.289062 366.320312 600.449219 371.472656 Z M 688.492188 497.296875 C 704.226562 499.632812 719.144531 503.378906 733.265625 508.550781 C 747.382812 513.707031 759.496094 520.464844 769.5625 528.800781 C 778.648438 536.175781 785.21875 543.84375 789.269531 551.835938 C 793.328125 559.824219 795.351562 567.367188 795.351562 574.496094 C 795.351562 582.359375 793.082031 589.546875 788.535156 596.046875 C 783.996094 602.566406 777.667969 607.476562 769.5625 610.792969 C 761.453125 614.117188 751.800781 615.457031 740.640625 614.851562 C 729.453125 614.234375 717.246094 610.851562 703.984375 604.71875 C 679.40625 593.421875 658.476562 578.867188 641.15625 561.046875 C 623.84375 543.238281 608.429688 522.058594 594.90625 497.484375 C 609.164062 495.273438 624.382812 494.117188 640.597656 493.988281 C 656.8125 493.871094 672.769531 494.96875 688.492188 497.296875 Z M 514.21875 129.386719 C 513.730469 130.613281 514.648438 131.65625 516.976562 132.519531 C 519.3125 133.371094 520.730469 134.054688 521.21875 134.542969 C 525.152344 136.746094 529.75 139.402344 535.03125 142.457031 C 540.3125 145.535156 545.296875 148.851562 549.957031 152.40625 C 554.628906 155.972656 558.613281 159.484375 561.9375 162.910156 C 565.242188 166.351562 566.777344 169.429688 566.535156 172.128906 C 566.289062 174.832031 564.695312 176.855469 561.75 178.214844 C 558.796875 179.5625 555.058594 180.492188 550.511719 180.972656 C 545.972656 181.46875 540.988281 181.589844 535.589844 181.34375 C 530.179688 181.097656 524.90625 180.609375 519.742188 179.859375 C 515.324219 179.125 511.890625 179.5625 509.425781 181.148438 C 506.980469 182.761719 505.746094 184.785156 505.746094 187.234375 C 505.746094 190.1875 507.585938 192.75 511.265625 194.976562 C 515.9375 197.6875 522.265625 201.113281 530.238281 205.28125 C 538.230469 209.480469 546.335938 213.902344 554.5625 218.550781 C 562.796875 223.234375 570.589844 227.707031 577.957031 232 C 585.332031 236.304688 590.746094 239.921875 594.171875 242.875 C 595.414062 244.117188 596.703125 245.585938 598.054688 247.296875 C 599.394531 249.027344 599.832031 250.613281 599.328125 252.082031 C 598.105469 254.789062 593.195312 255.960938 584.589844 255.597656 C 576 255.210938 565.984375 254.113281 554.5625 252.273438 C 543.140625 250.425781 531.472656 248.164062 519.558594 245.457031 C 507.644531 242.75 497.640625 240.285156 489.523438 238.082031 C 483.136719 236.371094 478.96875 236.058594 477.003906 237.164062 C 475.039062 238.277344 473.5625 241.40625 472.574219 246.5625 C 471.839844 250.738281 473.933594 253.1875 478.84375 253.9375 C 485.238281 256.628906 493.210938 259.824219 502.792969 263.511719 C 508.515625 265.714844 514.902344 267.386719 521.070312 269.234375 C 525.40625 273.445312 529.960938 278.09375 534.84375 283.398438 C 540.5 289.550781 545.789062 295.800781 550.699219 302.195312 C 555.609375 308.574219 559.902344 315.03125 563.589844 321.542969 C 567.269531 328.046875 569.613281 334.003906 570.589844 339.40625 C 564.9375 336.46875 558.375 333.152344 550.882812 329.464844 C 543.382812 325.777344 535.714844 322.714844 527.851562 320.253906 C 519.996094 317.804688 512.378906 316.640625 505.003906 316.757812 C 497.640625 316.886719 491.371094 319.15625 486.214844 323.578125 C 479.085938 330.199219 475.527344 338.914062 475.527344 349.730469 C 475.527344 354.152344 476.261719 359.191406 477.738281 364.835938 C 479.703125 372.453125 483.703125 380.199219 489.710938 388.054688 C 495.734375 395.925781 502.734375 402.539062 510.71875 407.9375 C 518.699219 413.347656 526.933594 416.90625 535.394531 418.636719 C 543.871094 420.351562 551.675781 418.882812 558.796875 414.214844 C 559.195312 414.316406 559.589844 414.335938 559.988281 414.4375 C 559.835938 415.820312 559.605469 417.035156 559.539062 418.636719 C 559.050781 428.457031 560.027344 438.230469 562.484375 447.929688 C 564.9375 457.625 568.253906 467.640625 572.429688 477.949219 C 568.742188 478.703125 563.03125 480.050781 555.304688 482 C 547.558594 483.976562 539.824219 486.421875 532.085938 489.375 C 524.34375 492.335938 517.59375 495.828125 511.8125 499.878906 C 506.050781 503.9375 503.15625 508.425781 503.15625 513.335938 C 503.15625 517.265625 504.820312 520.835938 508.136719 524.015625 C 511.449219 527.214844 514.832031 529.796875 518.277344 531.753906 C 523.675781 534.707031 530.0625 538.207031 537.425781 542.257812 C 544.800781 546.316406 552.167969 550.367188 559.539062 554.425781 C 566.90625 558.472656 573.722656 562.40625 579.980469 566.203125 C 586.25 570.023438 590.992188 573.273438 594.171875 575.964844 C 595.414062 577.203125 596.703125 578.671875 598.054688 580.394531 C 599.394531 582.125 599.832031 583.710938 599.328125 585.179688 C 598.105469 587.886719 593.195312 589.058594 584.589844 588.6875 C 576 588.324219 565.984375 587.203125 554.5625 585.371094 C 543.140625 583.53125 531.472656 581.261719 519.558594 578.554688 C 507.644531 575.847656 497.640625 573.398438 489.523438 571.179688 C 483.136719 569.46875 478.96875 569.15625 477.003906 570.253906 C 475.039062 571.375 473.5625 574.496094 472.574219 579.652344 C 471.839844 583.828125 473.933594 586.292969 478.84375 587.027344 C 485.238281 589.734375 493.210938 592.921875 502.792969 596.609375 C 512.378906 600.296875 522.570312 603.476562 533.378906 606.1875 C 544.183594 608.886719 554.992188 610.726562 565.800781 611.722656 C 576.605469 612.699219 586.308594 611.949219 594.90625 609.503906 C 602.035156 607.527344 607.316406 604.21875 610.757812 599.5625 C 614.199219 594.898438 615.425781 589.734375 614.445312 584.074219 C 613.464844 579.164062 610.335938 574.3125 605.039062 569.519531 C 599.765625 564.734375 593.195312 560.011719 585.332031 555.328125 C 577.46875 550.679688 568.929688 545.945312 559.726562 541.160156 C 550.511719 536.371094 541.613281 531.507812 533.007812 526.597656 C 531.050781 525.113281 529.328125 523.773438 527.851562 522.550781 C 526.375 521.324219 525.757812 520.203125 526.003906 519.226562 C 526.992188 518.492188 528.652344 517.511719 530.972656 516.273438 C 533.320312 515.046875 536.691406 513.632812 541.113281 512.046875 C 545.535156 510.449219 551.1875 508.671875 558.0625 506.695312 C 564.9375 504.738281 573.164062 502.644531 582.75 500.4375 C 590.628906 517.148438 600.011719 532.613281 610.945312 546.855469 C 621.871094 561.117188 633.664062 573.761719 646.320312 584.808594 C 658.964844 595.875 671.914062 605.082031 685.179688 612.457031 C 698.457031 619.8125 711.457031 624.847656 724.25 627.558594 C 737.738281 630.511719 749.777344 631.183594 760.347656 629.582031 C 770.902344 627.988281 779.820312 624.789062 787.066406 620.007812 C 794.304688 615.222656 799.824219 609.0625 803.652344 601.589844 C 807.449219 594.085938 809.347656 585.929688 809.347656 577.085938 C 809.347656 566.757812 806.707031 556.203125 801.433594 545.386719 C 796.152344 534.589844 787.980469 524.136719 776.933594 514.070312 C 765.386719 505.226562 752.367188 497.660156 737.882812 491.40625 C 723.378906 485.148438 707.890625 480.347656 691.457031 477.039062 C 674.988281 473.722656 657.742188 471.933594 639.671875 471.691406 C 621.625 471.445312 603.386719 472.796875 584.960938 475.75 C 581.035156 465.421875 578.023438 455.84375 575.933594 447.003906 C 573.847656 438.160156 572.800781 430.558594 572.800781 424.164062 C 572.800781 421.347656 573.0625 418.984375 573.484375 416.898438 C 580.386719 417.84375 587.28125 418.417969 594.171875 418.273438 C 604.742188 417.769531 612.976562 415.078125 618.867188 410.167969 C 624.753906 405.257812 627.707031 399.59375 627.707031 393.214844 C 627.707031 388.054688 625.867188 383.023438 622.183594 378.097656 C 618.496094 373.1875 614.023438 368.589844 608.726562 364.292969 C 603.453125 359.992188 598.054688 356.136719 592.511719 352.683594 C 586.992188 349.242188 582.378906 346.414062 578.699219 344.214844 C 577.46875 335.859375 574.828125 327.753906 570.777344 319.890625 C 566.71875 312.027344 561.996094 304.59375 556.585938 297.589844 C 551.1875 290.597656 545.535156 284.082031 539.636719 278.066406 C 538.007812 276.40625 536.472656 274.953125 534.90625 273.410156 C 545.207031 275.90625 555.507812 277.679688 565.800781 278.605469 C 576.605469 279.585938 586.308594 278.859375 594.90625 276.414062 C 602.035156 274.4375 607.316406 271.113281 610.757812 266.464844 C 614.199219 261.800781 615.425781 256.628906 614.445312 250.984375 C 613.464844 246.074219 610.191406 241.28125 604.675781 236.617188 C 599.148438 231.949219 592.390625 227.285156 584.402344 222.601562 C 576.429688 217.9375 567.707031 213.269531 558.25 208.605469 C 548.792969 203.9375 539.765625 199.027344 531.167969 193.871094 C 535.34375 194.117188 539.890625 194.117188 544.800781 193.871094 C 549.71875 193.628906 554.375 192.75 558.796875 191.292969 C 563.21875 189.824219 567.089844 187.789062 570.40625 185.207031 C 573.722656 182.632812 575.875 179.125 576.851562 174.703125 C 577.832031 170.773438 576.488281 166.351562 572.800781 161.441406 C 569.117188 156.53125 564.390625 151.8125 558.613281 147.25 C 552.847656 142.703125 546.882812 138.652344 540.742188 135.082031 C 534.609375 131.539062 529.691406 129.144531 526.003906 127.902344 C 524.78125 127.167969 523.246094 126.503906 521.398438 125.878906 C 519.558594 125.261719 518.03125 124.96875 516.800781 124.96875 C 516.058594 125.210938 515.449219 125.828125 514.953125 126.804688 C 514.460938 127.785156 514.21875 128.636719 514.21875 129.386719 " fill-opacity="1" fill-rule="nonzero"/></g><g clip-path="url(#db7fc84701)"><path fill="#000000" d="M 307.511719 27.316406 C 302.355469 29.535156 299.773438 32.597656 299.773438 36.527344 C 299.773438 39.238281 300.753906 41.945312 302.71875 44.636719 C 304.683594 47.34375 307.636719 49.792969 311.5625 52.011719 C 315.492188 54.214844 322.925781 57.234375 333.859375 61.03125 C 344.785156 64.835938 357.929688 68.894531 373.285156 73.1875 C 388.628906 77.492188 405.578125 81.785156 424.132812 86.089844 C 442.683594 90.382812 461.589844 94.316406 480.867188 97.882812 C 500.164062 101.453125 519.253906 104.328125 538.167969 106.53125 C 557.085938 108.75 574.523438 109.855469 590.484375 109.855469 C 595.414062 109.613281 598.660156 108.558594 600.253906 106.726562 C 601.859375 104.894531 602.652344 102.863281 602.652344 100.644531 C 602.652344 96.464844 601.425781 93.902344 598.957031 92.90625 C 583.980469 92.171875 567.707031 90.214844 550.132812 87.007812 C 532.585938 83.820312 514.832031 79.953125 496.90625 75.40625 C 478.96875 70.867188 461.277344 66.007812 443.839844 60.851562 C 426.402344 55.699219 410.3125 50.789062 395.574219 46.105469 C 380.824219 41.457031 367.933594 37.398438 356.882812 33.957031 C 345.832031 30.511719 337.597656 28.292969 332.199219 27.316406 C 320.902344 25.097656 312.675781 25.097656 307.511719 27.316406 " fill-opacity="1" fill-rule="nonzero"/></g><path fill="#000000" d="M 622.554688 106.167969 C 622.796875 109.613281 624.019531 112.925781 626.238281 116.125 C 628.441406 119.324219 631.269531 120.917969 634.710938 120.917969 C 638.152344 121.40625 641.949219 120.605469 646.125 118.519531 C 650.300781 116.429688 652.273438 113.171875 652.03125 108.75 C 652.273438 104.085938 650.984375 100.035156 648.148438 96.59375 C 645.339844 93.140625 641.703125 91.554688 637.285156 91.800781 C 626.972656 92.289062 622.0625 97.074219 622.554688 106.167969 " fill-opacity="1" fill-rule="nonzero"/><g clip-path="url(#2dfef93c24)"><path fill="#000000" d="M 318.402344 650.800781 C 324.621094 656.125 328.621094 660.226562 330.390625 663.078125 C 328.367188 664.125 325.117188 663.921875 320.679688 662.496094 C 316.242188 661.0625 311.171875 658.917969 305.460938 656.066406 C 299.75 653.207031 293.726562 649.832031 287.382812 645.933594 C 281.046875 642.035156 275.082031 638.207031 269.503906 634.441406 C 263.929688 630.671875 259.101562 627.101562 255.042969 623.71875 C 250.984375 620.34375 248.320312 617.871094 247.046875 616.3125 C 244.261719 613.972656 242.863281 610.597656 242.863281 606.1875 C 242.863281 604.101562 243.308594 602.085938 244.1875 600.136719 C 245.089844 598.1875 246.421875 596.964844 248.195312 596.441406 C 248.953125 596.441406 249.585938 596.179688 250.09375 595.65625 C 256.175781 600.863281 263.472656 606.769531 271.976562 613.390625 C 280.472656 620.015625 288.78125 626.585938 296.898438 633.066406 C 305.015625 639.570312 312.1875 645.488281 318.402344 650.800781 Z M 279.585938 603.445312 C 270.585938 596.703125 262.652344 590.847656 255.804688 585.910156 C 261.640625 587.472656 268.425781 588.964844 276.160156 590.390625 C 283.898438 591.828125 291.761719 593 299.75 593.910156 C 307.746094 594.8125 315.484375 595.132812 322.96875 594.871094 C 330.449219 594.617188 336.988281 593.453125 342.566406 591.371094 C 345.359375 590.070312 347.832031 588.121094 349.988281 585.53125 C 352.140625 582.933594 353.222656 579.8125 353.222656 576.167969 C 353.222656 569.933594 350.050781 563.175781 343.703125 555.910156 C 342.945312 554.863281 340.414062 552.070312 336.09375 547.523438 C 331.792969 542.984375 325.761719 537.332031 318.015625 530.566406 C 310.289062 523.816406 300.898438 516.472656 289.863281 508.550781 C 287.988281 507.203125 285.777344 505.902344 283.8125 504.570312 C 295.203125 507.109375 306.523438 509.707031 318.402344 511.867188 C 335.53125 514.988281 351.957031 516.675781 367.683594 516.9375 C 375.046875 516.414062 379.855469 513.816406 382.140625 509.144531 C 384.421875 504.460938 386.074219 499.523438 387.085938 494.335938 C 387.59375 492.25 386.949219 490.496094 385.1875 489.0625 C 383.417969 487.636719 380.625 487.054688 376.808594 487.316406 C 358.046875 478.996094 340.472656 470.6875 324.105469 462.367188 C 307.746094 454.066406 293.667969 446.066406 281.863281 438.40625 C 270.070312 430.746094 260.882812 423.589844 254.285156 416.96875 C 247.6875 410.335938 244.769531 404.566406 245.527344 399.621094 C 246.035156 395.46875 249.710938 393.578125 256.5625 393.976562 C 263.414062 394.355469 271.539062 395.402344 280.917969 397.089844 C 290.308594 398.777344 300.070312 400.269531 310.21875 401.5625 C 320.367188 402.878906 329.125 402.21875 336.484375 399.621094 C 340.28125 398.320312 343.003906 396.304688 344.660156 393.578125 C 346.3125 390.855469 347.128906 388.0625 347.128906 385.203125 C 347.128906 380.789062 345.417969 376.367188 341.992188 371.945312 C 338.566406 367.535156 334.128906 363.179688 328.679688 358.894531 C 323.230469 354.609375 317.0625 350.449219 310.21875 346.425781 C 303.371094 342.398438 296.519531 338.6875 289.667969 335.3125 C 285.675781 333.347656 282.023438 331.660156 278.253906 329.871094 C 297.421875 332.039062 315.941406 333.894531 333.625 335.3125 C 353.027344 336.875 370.914062 337.785156 387.28125 338.046875 C 403.640625 338.300781 417.398438 337.523438 428.570312 335.699219 C 433.640625 334.925781 437.25 333.296875 439.410156 330.832031 C 441.5625 328.359375 442.640625 325.566406 442.640625 322.453125 C 442.640625 319.601562 441.882812 316.859375 440.363281 314.269531 C 438.84375 311.671875 436.9375 309.460938 434.660156 307.648438 C 433.132812 306.339844 431.480469 306.273438 429.707031 307.445312 C 427.929688 308.617188 426.664062 309.335938 425.902344 309.597656 C 421.339844 311.410156 410.421875 311.808594 393.175781 310.753906 C 375.925781 309.722656 354.738281 307.773438 329.632812 304.914062 C 329.125 303.613281 328.679688 302.375 328.292969 301.210938 C 327.917969 300.046875 327.472656 299.464844 326.964844 299.464844 C 324.679688 294.257812 322.648438 288.410156 320.875 281.921875 C 319.105469 275.433594 317.507812 268.667969 316.117188 261.648438 C 314.726562 254.636719 313.644531 247.820312 312.886719 241.1875 C 312.117188 234.566406 311.738281 228.792969 311.738281 223.839844 C 311.738281 217.613281 312.371094 212.933594 313.644531 209.820312 C 314.160156 208.257812 313.898438 206.570312 312.886719 204.757812 C 311.863281 202.933594 310.734375 202.015625 309.460938 202.015625 C 307.933594 202.015625 306.726562 202.277344 305.839844 202.808594 C 304.957031 203.332031 304.128906 205.011719 303.371094 207.871094 C 302.609375 212.03125 302.230469 217.480469 302.230469 224.238281 C 302.230469 234.109375 303.125 245.152344 304.886719 257.363281 C 306.667969 269.585938 309.214844 281.527344 312.507812 293.21875 C 313.265625 295.566406 313.644531 297.253906 313.644531 298.289062 C 313.644531 301.152344 312.253906 302.375 309.460938 301.996094 C 306.667969 301.597656 304.253906 301.015625 302.230469 300.238281 C 296.390625 297.117188 289.863281 291.929688 282.632812 284.648438 C 275.402344 277.382812 267.984375 269.445312 260.367188 260.871094 C 252.75 252.300781 245.140625 243.71875 237.539062 235.148438 C 229.917969 226.574219 222.824219 219.300781 216.226562 213.320312 C 213.433594 210.984375 211.089844 209.035156 209.183594 207.480469 C 207.285156 205.921875 205.066406 206.570312 202.527344 209.429688 C 199.734375 212.292969 198.339844 214.882812 198.339844 217.21875 C 198.339844 218.777344 198.90625 220.40625 200.054688 222.09375 C 201.191406 223.78125 202.777344 225.789062 204.8125 228.136719 C 208.355469 232.296875 213.121094 237.433594 219.078125 243.523438 C 225.035156 249.632812 231.320312 255.996094 237.917969 262.628906 C 244.515625 269.25 251.035156 275.621094 257.515625 281.71875 C 263.980469 287.828125 269.503906 293.09375 274.070312 297.507812 C 257.078125 295.167969 239.4375 292.636719 221.171875 289.914062 C 202.90625 287.1875 184.582031 284.257812 166.1875 281.136719 C 147.796875 278.023438 129.589844 274.777344 111.578125 271.394531 C 93.566406 268.019531 76.3125 264.644531 59.820312 261.269531 C 53.222656 259.96875 47.585938 259.835938 42.886719 260.871094 C 38.195312 261.917969 34.460938 263.664062 31.660156 266.136719 C 28.875 268.609375 26.851562 271.460938 25.566406 274.707031 C 24.300781 277.964844 23.667969 281.136719 23.667969 284.257812 C 23.667969 288.410156 24.554688 291.851562 26.335938 294.585938 C 28.113281 297.320312 30.519531 298.289062 33.566406 297.507812 C 37.632812 297.253906 45.164062 297.765625 56.199219 299.066406 C 67.234375 300.367188 80.625 302.121094 96.351562 304.324219 C 112.085938 306.535156 129.648438 309.140625 149.0625 312.128906 C 168.46875 315.113281 188.628906 318.109375 209.5625 321.078125 C 225.675781 323.382812 241.933594 325.390625 258.199219 327.390625 C 259.007812 327.828125 259.601562 328.183594 260.554688 328.691406 C 265 331.027344 270.265625 333.886719 276.355469 337.269531 C 282.4375 340.636719 288.851562 344.339844 295.566406 348.375 C 302.289062 352.398438 308.574219 356.5 314.40625 360.648438 C 320.25 364.808594 325.117188 368.890625 329.058594 372.925781 C 332.992188 376.949219 335.082031 380.652344 335.335938 384.027344 C 333.5625 386.898438 329.4375 388.507812 322.96875 388.90625 C 316.496094 389.292969 309.332031 389.03125 301.460938 388.128906 C 293.609375 387.21875 285.804688 386.046875 278.066406 384.609375 C 270.324219 383.195312 264.308594 382.222656 259.988281 381.699219 C 252.632812 380.390625 246.09375 380.789062 240.390625 382.855469 C 234.6875 384.949219 231.445312 389.359375 230.679688 396.109375 C 230.171875 400.53125 230.941406 405.207031 232.972656 410.148438 C 235 415.085938 238.871094 420.664062 244.574219 426.90625 C 250.277344 433.140625 258.148438 440.09375 268.164062 447.753906 C 278.195312 455.421875 290.816406 464.316406 306.035156 474.457031 C 299.183594 473.410156 291.058594 471.722656 281.679688 469.386719 C 272.296875 467.050781 262.847656 464.773438 253.332031 462.5625 C 243.816406 460.359375 234.871094 458.546875 226.496094 457.109375 C 218.125 455.683594 211.527344 455.222656 206.710938 455.753906 C 199.101562 456.789062 193.328125 459.582031 189.398438 464.128906 C 185.46875 468.667969 183.121094 472.886719 182.355469 476.785156 C 181.847656 479.394531 182.226562 481.148438 183.492188 482.058594 C 184.765625 482.960938 186.671875 483.679688 189.203125 484.195312 C 198.339844 484.96875 209.816406 487.054688 223.644531 490.4375 C 234.542969 493.09375 246.363281 495.964844 258.6875 498.960938 C 259.71875 499.640625 260.621094 500.207031 261.699219 500.949219 C 268.164062 505.371094 274.894531 510.171875 281.863281 515.371094 C 288.851562 520.574219 295.828125 525.964844 302.796875 531.542969 C 309.78125 537.136719 315.992188 542.597656 321.441406 547.910156 C 326.90625 553.242188 331.210938 558.179688 334.382812 562.71875 C 337.554688 567.273438 339.015625 571.097656 338.761719 574.21875 C 338 576.824219 335.21875 578.511719 330.390625 579.289062 C 325.566406 580.066406 319.296875 580.132812 311.554688 579.484375 C 303.816406 578.832031 295 577.667969 285.105469 575.972656 C 275.207031 574.292969 264.8125 572.269531 253.898438 569.933594 C 246.035156 568.371094 240.644531 568.769531 237.722656 571.097656 C 234.8125 573.441406 234.105469 576.429688 235.632812 580.066406 C 231.320312 581.625 227.640625 585.078125 224.597656 590.390625 C 221.550781 595.722656 220.03125 601.890625 220.03125 608.910156 C 220.03125 613.332031 220.792969 618.132812 222.308594 623.332031 C 224.859375 629.566406 228.78125 635.800781 234.105469 642.035156 C 239.4375 648.269531 245.585938 654.183594 252.570312 659.769531 C 259.550781 665.355469 267.03125 670.417969 275.015625 674.972656 C 283.011719 679.511719 290.816406 683.21875 298.417969 686.078125 C 302.355469 687.554688 306.144531 688.769531 309.804688 689.757812 C 317.476562 694.421875 324.847656 699.0625 331.53125 703.617188 C 339.140625 708.816406 345.484375 713.820312 350.554688 718.628906 C 355.632812 723.429688 358.300781 727.527344 358.554688 730.902344 C 357.28125 732.980469 353.855469 734.277344 348.277344 734.800781 C 342.691406 735.324219 335.84375 735.441406 327.726562 735.179688 C 319.609375 734.929688 310.851562 734.40625 301.460938 733.628906 C 292.089844 732.851562 283.136719 732.007812 274.640625 731.097656 C 266.136719 730.1875 258.527344 729.476562 251.804688 728.953125 C 245.089844 728.433594 240.332031 728.304688 237.539062 728.558594 C 228.148438 728.558594 220.34375 730.769531 214.136719 735.179688 C 207.917969 739.601562 204.675781 745.1875 204.425781 751.945312 C 204.425781 756.367188 206.078125 761.691406 209.375 767.925781 C 212.675781 774.160156 217.8125 780.785156 224.78125 787.804688 C 231.765625 794.816406 240.710938 802.214844 251.617188 810.019531 C 262.527344 817.816406 275.585938 825.476562 290.816406 833.011719 C 291.574219 833.792969 291.261719 834.183594 289.863281 834.183594 C 288.46875 834.183594 286.816406 833.988281 284.917969 833.59375 C 283.011719 833.210938 281.171875 832.757812 279.390625 832.234375 C 277.621094 831.71875 276.480469 831.457031 275.96875 831.457031 C 266.332031 829.886719 255.296875 827.878906 242.863281 825.417969 C 230.433594 822.945312 217.367188 820.285156 203.664062 817.417969 C 189.972656 814.566406 176.019531 811.578125 161.8125 808.457031 C 147.601562 805.335938 133.707031 802.289062 120.140625 799.304688 C 106.574219 796.308594 93.683594 793.390625 81.511719 790.527344 C 70.46875 787.9375 60.722656 785.710938 51.972656 783.761719 C 51.804688 782.351562 51.621094 780.808594 51.449219 779.425781 C 49.171875 761.101562 47.011719 745.1875 44.980469 731.671875 C 42.945312 718.171875 41.300781 708.554688 40.027344 702.84375 C 39.519531 700.757812 38.003906 699.128906 35.472656 697.964844 C 32.933594 696.792969 31.152344 696.34375 30.140625 696.597656 C 28.875 696.34375 27.921875 696.859375 27.28125 698.152344 C 26.65625 699.457031 26.265625 701.019531 26.140625 702.84375 C 26.015625 704.65625 26.089844 706.527344 26.335938 708.488281 C 26.597656 710.425781 26.714844 712.0625 26.714844 713.355469 C 27.472656 721.925781 28.488281 732.910156 29.761719 746.292969 C 30.867188 757.960938 32.03125 770.980469 33.234375 784.917969 C 32.316406 785.332031 31.117188 785.527344 30.332031 786.046875 C 28.175781 787.484375 26.519531 789.238281 25.382812 791.3125 C 24.242188 793.390625 23.667969 795.347656 23.667969 797.160156 C 23.667969 799.234375 24.242188 800.921875 25.382812 802.214844 C 26.519531 803.53125 28.367188 804.171875 30.898438 804.171875 C 32.164062 804.628906 33.632812 805.160156 35.023438 805.65625 C 36.070312 817.730469 37.152344 830.15625 38.316406 843.335938 C 39.96875 861.914062 41.554688 880.5625 43.082031 899.265625 C 31.660156 897.191406 23.484375 896.863281 18.53125 898.289062 C 13.585938 899.722656 11.105469 901.992188 11.105469 905.113281 C 11.105469 907.964844 13.074219 911.085938 17.011719 914.460938 C 20.953125 917.84375 26.207031 920.570312 32.804688 922.644531 C 34.832031 923.429688 36.871094 924.273438 38.898438 925.183594 C 40.921875 926.097656 43.082031 926.941406 45.359375 927.714844 C 46.632812 944.347656 47.832031 960.394531 48.980469 975.851562 C 50.117188 991.308594 51.0625 1005.597656 51.820312 1018.71875 C 52.597656 1031.839844 53.105469 1043.414062 53.359375 1053.402344 C 53.609375 1063.410156 53.609375 1071.410156 53.359375 1077.382812 C 53.359375 1077.898438 53.535156 1078.808594 53.921875 1080.109375 C 54.300781 1081.40625 54.875 1082.316406 55.636719 1082.832031 C 56.148438 1083.09375 57.035156 1083.355469 58.300781 1083.609375 C 59.574219 1083.871094 60.898438 1084.003906 62.292969 1084.003906 C 63.691406 1084.003906 64.957031 1083.945312 66.105469 1083.8125 C 67.234375 1083.683594 67.945312 1083.492188 68.1875 1083.230469 C 71.242188 1080.371094 73.269531 1077.644531 74.28125 1075.035156 C 75.300781 1072.445312 76.1875 1068.945312 76.945312 1064.523438 C 77.199219 1060.363281 77.265625 1054.128906 77.140625 1045.800781 C 77.015625 1037.492188 76.566406 1027.679688 75.800781 1016.382812 C 75.039062 1005.078125 74.085938 992.546875 72.957031 978.769531 C 71.808594 965.007812 70.476562 950.714844 68.949219 935.902344 C 84.9375 940.84375 103.074219 945.972656 123.375 951.296875 C 143.671875 956.621094 164.984375 961.683594 187.304688 966.492188 C 209.628906 971.3125 232.078125 975.648438 254.65625 979.554688 C 277.242188 983.453125 298.804688 986.566406 319.355469 988.902344 C 339.910156 991.246094 358.613281 992.546875 375.484375 992.800781 C 392.351562 993.0625 405.984375 991.890625 416.386719 989.300781 C 422.984375 987.738281 427.546875 985.265625 430.085938 981.890625 C 432.628906 978.515625 433.902344 975.132812 433.902344 971.757812 C 433.902344 968.121094 432.6875 965.007812 430.28125 962.402344 C 427.867188 959.8125 425.144531 959.035156 422.097656 960.0625 C 420.824219 960.585938 419.625 960.976562 418.488281 961.238281 C 417.339844 961.5 414.613281 961.5 410.296875 961.238281 C 403.960938 960.714844 393.488281 959.414062 378.910156 957.339844 C 364.324219 955.253906 347.128906 952.664062 327.335938 949.542969 C 307.554688 946.421875 286.046875 942.859375 262.847656 938.820312 C 239.628906 934.804688 216.292969 930.703125 192.824219 926.542969 C 169.363281 922.394531 146.589844 918.308594 124.511719 914.269531 C 102.441406 910.242188 82.785156 906.664062 65.523438 903.550781 C 63.246094 881.996094 60.898438 860.488281 58.496094 839.050781 C 57.484375 830.082031 56.496094 821.542969 55.507812 813.125 C 58.875 814.421875 62.46875 815.855469 66.289062 817.417969 C 83.542969 824.183594 102.382812 830.808594 122.800781 837.296875 C 143.226562 843.800781 164.089844 849.910156 185.398438 855.613281 C 206.710938 861.332031 227.835938 866.464844 248.757812 871.011719 C 269.699219 875.550781 289.230469 879.328125 307.367188 882.316406 C 325.507812 885.292969 341.738281 887.3125 356.082031 888.347656 C 370.40625 889.394531 381.636719 889.261719 389.753906 887.96875 C 397.363281 887.707031 403.707031 884.914062 408.777344 879.589844 C 413.847656 874.257812 416.386719 868.605469 416.386719 862.632812 C 416.386719 858.996094 415.246094 855.757812 412.960938 852.886719 C 410.683594 850.027344 406.878906 847.960938 401.546875 846.660156 C 386.074219 843.277344 370.855469 839.058594 355.886719 833.988281 C 340.921875 828.917969 326.714844 823.527344 313.265625 817.816406 C 299.816406 812.101562 287.449219 806.121094 276.160156 799.886719 C 264.871094 793.640625 255.230469 787.609375 247.238281 781.761719 C 239.242188 775.914062 233.101562 770.457031 228.78125 765.386719 C 224.46875 760.324219 222.699219 755.980469 223.457031 752.335938 C 223.964844 749.472656 226.882812 747.660156 232.207031 746.875 C 237.539062 746.097656 244.320312 745.847656 252.570312 746.097656 C 260.816406 746.359375 269.953125 746.875 279.964844 747.660156 C 289.988281 748.4375 300.011719 749.085938 310.027344 749.609375 C 320.058594 750.132812 329.4375 750.257812 338.195312 749.996094 C 346.9375 749.742188 354.117188 748.570312 359.683594 746.488281 C 363.496094 745.1875 366.222656 743.179688 367.875 740.453125 C 369.519531 737.722656 370.347656 734.929688 370.347656 732.066406 C 370.347656 727.65625 368.0625 722.847656 363.496094 717.648438 C 358.925781 712.460938 353.027344 707.128906 345.804688 701.667969 C 341.367188 698.328125 336.515625 695.046875 331.464844 691.796875 C 333.058594 691.511719 334.738281 691.324219 336.09375 690.75 C 341.679688 688.675781 345.613281 685.949219 347.890625 682.566406 C 350.175781 679.191406 351.316406 675.683594 351.316406 672.046875 C 351.316406 668.925781 350.621094 665.8125 349.230469 662.699219 C 347.832031 659.578125 345.984375 656.84375 343.703125 654.515625 C 340.921875 651.652344 336.09375 647.433594 329.246094 641.839844 C 322.394531 636.257812 314.664062 630.148438 306.035156 623.523438 C 297.40625 616.894531 288.597656 610.210938 279.585938 603.445312 " fill-opacity="1" fill-rule="nonzero"/></g></svg>