<svg xmlns="http://www.w3.org/2000/svg" xmlns:xlink="http://www.w3.org/1999/xlink" width="1080" zoomAndPan="magnify" viewBox="0 0 810 1439.999935" height="1920" preserveAspectRatio="xMidYMid meet" version="1.0"><defs><filter x="0%" y="0%" width="100%" height="100%" id="a61f995451"><feColorMatrix values="0 0 0 0 1 0 0 0 0 1 0 0 0 0 1 0 0 0 1 0" color-interpolation-filters="sRGB"/></filter><mask id="b7c94a78e1"><g filter="url(#a61f995451)"><rect x="-81" width="972" fill="#000000" y="-143.999994" height="1727.999922" fill-opacity="0.43"/></g></mask><clipPath id="0664c63a9c"><path d="M 185 152 L 810 152 L 810 955 L 185 955 Z M 185 152 " clip-rule="nonzero"/></clipPath><clipPath id="17582940ce"><path d="M 186 888 L 472 888 L 472 1035.6875 L 186 1035.6875 Z M 186 888 " clip-rule="nonzero"/></clipPath><clipPath id="1cec5d44f6"><rect x="0" width="810" y="0" height="1037"/></clipPath></defs><g mask="url(#b7c94a78e1)"><g transform="matrix(1, 0, 0, 1, 0, 226)"><g clip-path="url(#1cec5d44f6)"><g clip-path="url(#0664c63a9c)"><path fill="#040505" d="M 815.746094 954.375 C 734.75 916.695312 654.335938 876.21875 580.957031 824.234375 C 507.761719 771.617188 445.445312 706.683594 383.882812 641.890625 C 353.605469 609.082031 321.617188 577.40625 296.710938 539.148438 C 271.839844 500.832031 256.046875 457.917969 242.910156 415.140625 C 216.015625 329.589844 196.527344 241.726562 185.101562 152.972656 L 186.234375 152.789062 C 204.695312 240.28125 227.210938 326.609375 254.242188 411.582031 C 268.003906 453.816406 282.628906 495.957031 305.871094 533.328125 C 329.289062 570.5 359.972656 603.398438 388.632812 637.652344 C 417.777344 671.449219 447.835938 704.570312 480.773438 734.707031 C 513.488281 765.125 549.324219 791.796875 586.417969 816.390625 C 660.019531 866.433594 738.714844 908.710938 816.289062 953.335938 L 815.746094 954.375 " fill-opacity="1" fill-rule="nonzero"/></g><path fill="#040505" d="M 231.183594 219.9375 C 224.011719 228.824219 214.527344 237.394531 202.027344 238.570312 C 189.308594 239.207031 178.378906 231.257812 169.542969 223.726562 C 160.601562 215.828125 152.800781 207.070312 145.257812 198.28125 C 137.449219 189.292969 130.679688 179.277344 125.273438 168.359375 C 120.085938 157.398438 116.425781 145.210938 116.238281 132.574219 C 115.972656 119.902344 119.359375 107.847656 123.285156 96.746094 C 131.363281 74.679688 141.515625 53.609375 153.472656 33.574219 C 156.40625 28.566406 159.433594 23.554688 162.542969 18.683594 L 167.324219 11.371094 C 169 9.027344 169.898438 6.273438 173.144531 3.882812 C 176.625 1.535156 181.046875 3.023438 183.441406 4.917969 C 186.050781 6.816406 188.039062 9.339844 189.667969 11.734375 C 193.003906 16.472656 196.527344 21.074219 199.726562 25.945312 C 212.957031 45.035156 225.410156 64.890625 235.148438 86.234375 C 244.492188 107.53125 252.257812 130.320312 252.753906 154.324219 C 253.113281 166.1875 251.574219 178.191406 248.015625 189.429688 C 244.273438 200.578125 238.625 211 231.183594 219.941406 Z M 230.285156 219.210938 C 237.503906 210.328125 242.828125 199.804688 245.082031 188.667969 C 247.195312 177.476562 247.289062 166.0625 245.535156 154.960938 C 242.011719 132.757812 234.121094 111.320312 226.308594 89.886719 C 218.316406 68.589844 209.027344 47.382812 196.621094 28.023438 C 193.5 23.195312 190.300781 18.410156 186.824219 13.851562 C 183.84375 9.476562 178.65625 4.917969 175.410156 7.265625 C 173.875 8.304688 172.476562 11.191406 170.984375 13.628906 L 166.875 21.164062 C 164.171875 26.261719 161.546875 31.363281 159.074219 36.550781 C 149.234375 57.308594 140.753906 78.652344 133.613281 100.222656 C 130.148438 110.960938 127.710938 121.703125 128.253906 132.214844 C 128.832031 142.773438 131.765625 153.238281 136.421875 163.082031 C 140.878906 173.050781 147.152344 182.347656 153.921875 191.277344 C 161.015625 200.394531 167.601562 209.832031 174.914062 218.308594 C 182.214844 226.570312 190.972656 234.550781 201.980469 235.324219 C 213.082031 235.777344 223.144531 227.875 230.285156 219.210938 " fill-opacity="1" fill-rule="nonzero"/><path fill="#040505" d="M 180.910156 314.871094 C 170.894531 302.199219 161.871094 288.84375 152.800781 275.617188 C 148.425781 269.035156 143.816406 262.808594 138.441406 257.886719 C 133.210938 252.964844 126.625 249.984375 119.40625 247.191406 C 112.136719 244.441406 104.285156 241.863281 96.796875 237.71875 C 89.351562 233.558594 82.898438 228.371094 76.714844 223.230469 C 64.667969 212.9375 51.355469 202.519531 35.695312 202.242188 L 37.183594 198.636719 L 60.378906 218.042969 C 68.140625 224.628906 75.632812 232.300781 81.046875 241.597656 C 86.550781 250.574219 90.164062 260.09375 94.992188 268.261719 C 99.773438 276.566406 105.550781 282.882812 113.449219 287.171875 C 121.347656 291.410156 130.820312 294.390625 140.382812 297.773438 L 168.6875 308.195312 C 178.113281 311.578125 187.460938 315.414062 196.792969 319.121094 C 201.53125 320.96875 205.863281 322.957031 210.378906 323.316406 C 212.585938 323.5 215.070312 323.003906 217.691406 322.820312 C 220.210938 322.589844 223.515625 322.910156 225.410156 325.117188 L 224.636719 325.972656 C 220.582031 323.40625 216.015625 326.746094 210.519531 327.289062 C 204.867188 327.914062 199.636719 326.25 194.851562 325.023438 C 185.101562 322.507812 175.316406 320.070312 165.707031 317.226562 L 136.734375 308.875 C 127.261719 305.804688 117.199219 303.410156 107.445312 297.960938 C 97.382812 292.761719 89.710938 283.070312 85.019531 273.769531 C 80.144531 264.332031 76.714844 254.90625 72.425781 246.382812 C 63.898438 229.640625 48.511719 215.871094 34.386719 201.710938 L 30.371094 197.691406 L 35.875 198.09375 C 53.203125 199.320312 66.515625 210.5 79.875 218.945312 C 86.597656 223.277344 93.367188 227.425781 100.359375 230.265625 C 107.402344 233.027344 115.070312 234.78125 122.929688 237.53125 C 130.679688 240.234375 138.984375 244.300781 145.304688 250.667969 C 151.671875 256.800781 156.003906 264.160156 160.023438 271.195312 C 167.648438 285.414062 175.226562 299.53125 181.902344 314.292969 L 180.910156 314.871094 " fill-opacity="1" fill-rule="nonzero"/><path fill="#040505" d="M 379.472656 364.464844 C 403.523438 361.761719 427.703125 358.964844 450.089844 351.0625 C 461.238281 347.136719 471.703125 341.730469 481.222656 335.132812 C 490.664062 328.363281 498.957031 320.070312 505.863281 310.679688 C 519.671875 291.8125 529.234375 269.980469 535.382812 246.96875 C 541.78125 223.992188 545.351562 200.035156 548.425781 176.03125 L 551.4375 178.328125 C 510.335938 193.671875 472.0625 216.371094 437.808594 243.539062 C 429.238281 250.261719 421.023438 257.480469 412.765625 264.65625 C 404.597656 271.921875 396.523438 279.1875 390.074219 287.355469 C 383.480469 295.476562 379.101562 304.40625 378.386719 314.292969 C 377.390625 324.214844 379.78125 334.683594 380.683594 346.28125 C 381.132812 352.054688 381.089844 358.191406 379.875 364.335938 C 378.570312 370.46875 376.664062 375.65625 374.550781 381.027344 C 370.265625 391.632812 365.203125 401.601562 360.328125 411.304688 C 355.5 421.101562 351.039062 430.804688 348.199219 440.820312 C 345.355469 451.019531 342.964844 461.707031 341.289062 472.355469 C 334.785156 515.050781 337.546875 559.492188 351.261719 601.320312 L 350.175781 601.722656 C 331.992188 561.386719 325.8125 515.457031 331.136719 470.957031 C 332.441406 459.765625 334.335938 448.847656 337.003906 437.746094 C 339.984375 426.519531 344.628906 416.085938 349.367188 406.027344 C 354.054688 395.964844 359.164062 386.308594 363.089844 376.464844 C 365.078125 371.648438 366.832031 366.449219 367.917969 361.804688 C 368.957031 357.164062 369.132812 352.195312 368.867188 347.007812 C 368.371094 336.667969 365.976562 325.300781 367.328125 313.207031 C 368.460938 300.972656 374.550781 289.421875 382.128906 280.804688 C 389.753906 271.96875 398.417969 264.828125 406.953125 257.792969 C 415.570312 250.757812 424.503906 244.164062 433.570312 237.808594 C 469.949219 212.347656 509.15625 191.636719 549.777344 174.183594 L 553.113281 172.785156 L 552.800781 176.480469 C 550.769531 200.625 549.234375 224.988281 544 249.085938 C 538.675781 273.042969 529.464844 297.011719 513.765625 316.730469 C 498.507812 336.667969 476.394531 351.789062 452.34375 358.0625 C 428.429688 365.050781 403.742188 365.953125 379.550781 365.640625 L 379.472656 364.464844 " fill-opacity="1" fill-rule="nonzero"/><path fill="#040505" d="M 363.308594 383.511719 C 364.707031 370.78125 361.773438 358.605469 356.910156 347.632812 C 352.035156 336.53125 344.535156 326.839844 336.554688 317.355469 C 328.699219 307.742188 320.21875 298.132812 311.277344 289.066406 C 302.253906 280.042969 292.644531 271.644531 282.675781 263.753906 L 286.417969 261.492188 C 290.207031 275.929688 294.398438 290.242188 297.832031 304.730469 C 301.078125 319.25 304.691406 333.6875 307.488281 348.3125 C 310.421875 362.753906 312.859375 376.960938 318.683594 389.832031 C 324.503906 402.457031 333.433594 414.285156 346.882812 420.742188 L 346.570312 421.816406 C 331.273438 419.207031 318.324219 407.609375 310.375 394.207031 C 302.300781 380.578125 298.28125 365.328125 295.394531 350.703125 C 292.414062 336.125 290.296875 321.375 287.769531 306.703125 C 285.421875 292.046875 283.839844 277.15625 281.855469 262.390625 L 280.90625 255.449219 L 285.65625 260.140625 C 294.769531 269.207031 304.242188 277.777344 314.351562 285.679688 C 324.644531 293.441406 335.0625 301.066406 344.179688 310.632812 C 353.109375 320.195312 360.699219 331.667969 364.984375 344.523438 C 369.222656 357.242188 369.722656 371.683594 364.441406 383.777344 L 363.308594 383.511719 " fill-opacity="1" fill-rule="nonzero"/><path fill="#040505" d="M 331.449219 474.25 C 345.3125 480.210938 360.015625 477.773438 374.640625 475.925781 C 389.300781 473.984375 403.648438 470.867188 418.054688 467.621094 C 432.449219 464.511719 447.015625 460.804688 460.695312 454.855469 C 474.363281 448.800781 486.953125 440.542969 498.460938 431.117188 L 499.777344 436.753906 C 484.390625 435.261719 469.542969 431.210938 455.105469 427.375 C 440.699219 423.585938 426.398438 420.511719 412.3125 420.246094 C 398.324219 419.921875 384.207031 422.949219 371.351562 429.269531 C 358.386719 435.496094 346.707031 444.746094 337.316406 456.519531 L 336.324219 455.929688 C 342.597656 441.90625 353.558594 429.890625 366.925781 421.414062 C 380.28125 413.0625 396.210938 407.875 412.359375 407.921875 C 428.523438 407.921875 443.726562 412.34375 458.164062 416.941406 C 472.652344 421.503906 486.457031 426.96875 500.816406 430.574219 L 508.300781 432.421875 L 502.121094 436.210938 C 489.125 444.25 475.769531 451.332031 462.324219 458.238281 C 448.832031 465.089844 435.199219 472.042969 420.621094 476.917969 C 406.007812 481.5625 390.746094 484.09375 375.449219 484.855469 C 360.699219 485.535156 343.230469 485.351562 330.824219 475.246094 L 331.449219 474.25 " fill-opacity="1" fill-rule="nonzero"/><path fill="#040505" d="M 490.257812 260.230469 C 485.511719 272.996094 475.851562 283.195312 464.933594 290.324219 C 459.25 293.753906 452.886719 295.925781 447.386719 299.3125 C 441.785156 302.601562 436.863281 306.75 432.171875 311.265625 C 422.964844 320.425781 413.398438 328.503906 404.734375 337.257812 C 395.621094 345.609375 387.316406 354.273438 379.101562 364.695312 L 378.027344 364.242188 C 379.425781 350.703125 386.910156 338.296875 396.027344 328.546875 C 405.542969 319.074219 416.601562 311.53125 428.570312 306.082031 C 434.425781 303.191406 440.203125 300.210938 445.261719 296.191406 C 450.355469 292.265625 454.515625 287.078125 459.113281 282.699219 C 468.632812 274.265625 478.429688 267.21875 489.34375 259.503906 L 490.257812 260.230469 " fill-opacity="1" fill-rule="nonzero"/><path fill="#040505" d="M 317.734375 331.21875 C 323.199219 336.402344 326.308594 341.359375 328.246094 347.179688 C 328.976562 350.207031 328.929688 353.859375 330.375 356.710938 C 331.726562 359.601562 334.253906 361.667969 337.003906 363.515625 C 342.734375 366.992188 347.609375 371.417969 351.582031 377.285156 C 355.003906 383.234375 357.128906 391.679688 353.523438 398.585938 L 352.390625 398.621094 C 348.371094 392.535156 344.941406 388.789062 341.289062 384.101562 C 338.136719 379.226562 334.382812 374.039062 332.082031 367.488281 C 330.777344 364.289062 329.425781 361.261719 327.253906 358.734375 C 325.140625 356.214844 321.835938 354.273438 319.675781 351.558594 C 315.792969 345.921875 314.351562 338.75 316.601562 331.484375 L 317.734375 331.21875 " fill-opacity="1" fill-rule="nonzero"/><path fill="#040505" d="M 439.796875 442.484375 C 431.085938 447.449219 422.339844 449.703125 413.226562 450.199219 C 408.617188 450.199219 403.835938 449.125 399.273438 449.578125 C 394.675781 449.933594 390.34375 451.515625 386.054688 453.410156 C 377.621094 457.464844 368.914062 460.089844 360.15625 462.339844 C 351.261719 464.144531 343.140625 465.042969 333.621094 467.03125 L 332.984375 466.082031 C 338.621094 457.605469 348.371094 453.132812 357.128906 450.429688 C 366.152344 448.167969 375.3125 446.769531 384.796875 447.183594 C 389.53125 447.265625 394.175781 447.09375 398.601562 445.867188 C 403.074219 444.746094 407.3125 442.125 411.738281 440.726562 C 420.757812 438.429688 430.140625 438.382812 439.671875 441.363281 L 439.796875 442.484375 " fill-opacity="1" fill-rule="nonzero"/><path fill="#040505" d="M 172.972656 528.808594 C 166.109375 506.46875 158.210938 484.589844 148.78125 463.519531 C 139.078125 442.761719 127.710938 422.359375 109.835938 409.097656 C 100.902344 402.503906 90.839844 396.910156 80.777344 390.5 C 70.757812 384.101562 61.28125 376.882812 52.480469 368.980469 C 34.566406 353.5 18.996094 335.953125 2.574219 319.386719 L 6.046875 317.449219 C 14.800781 356.214844 26.039062 395.15625 46.886719 428.585938 C 57.308594 445.199219 69.585938 460.585938 84.566406 472.726562 C 99.234375 485.132812 117.105469 493.207031 134.976562 502.550781 C 152.804688 511.980469 169.679688 521.359375 188.222656 527.101562 C 197.476562 530.160156 207.085938 532.691406 216.746094 535.53125 C 226.402344 538.511719 235.96875 541.714844 245.394531 545.238281 C 283.265625 559.132812 319.085938 578.355469 351.445312 601.863281 L 350.808594 602.855469 C 316.0625 583.136719 279.648438 567.117188 242.101562 554.800781 C 223.285156 548.621094 204.199219 544.507812 184.570312 538.652344 C 164.714844 532.957031 146.53125 522.675781 129.328125 513.109375 C 112.140625 503.535156 93.410156 494.605469 77.753906 480.753906 C 62.230469 466.984375 49.730469 450.386719 40.253906 432.421875 C 21.027344 396.414062 12.546875 356.839844 2.03125 318.441406 L 0 311 L 5.507812 316.453125 C 22.019531 332.925781 39.484375 348.40625 57.761719 362.523438 C 66.96875 369.476562 76.398438 376.0625 86.054688 382.113281 C 95.714844 388.109375 106.40625 393.34375 116.019531 401.105469 C 135.382812 416.722656 147.558594 438.601562 155.726562 460.632812 C 164.125 482.648438 170.351562 505.394531 174.046875 528.542969 L 172.972656 528.808594 " fill-opacity="1" fill-rule="nonzero"/><path fill="#040505" d="M 194.945312 536.882812 C 180.734375 534.722656 168.363281 542.300781 158.53125 551.371094 C 148.597656 560.625 138.675781 571.898438 126.765625 580.34375 C 114.9375 588.960938 101.761719 595.453125 88.402344 600.960938 C 75 606.425781 61.550781 611.347656 47.742188 615.539062 L 47.832031 611.519531 C 64.847656 615.851562 82.128906 619.191406 98.960938 619.734375 C 107.355469 619.824219 115.707031 619.328125 123.597656 617.25 C 131.546875 615.21875 139.125 611.796875 146.609375 607.996094 C 161.546875 600.105469 175.539062 590.3125 189.078125 579.300781 C 202.570312 568.339844 215.925781 557.054688 228.609375 544.832031 L 229.511719 545.546875 C 219.851562 560.484375 208.082031 573.929688 195.351562 586.382812 C 182.757812 598.800781 168.59375 610.621094 152.304688 618.925781 C 136.191406 627.636719 116.5625 631.734375 98.328125 629.65625 C 79.964844 627.855469 63.222656 621.222656 46.617188 615.539062 L 39.621094 613.148438 L 46.707031 611.519531 C 60.46875 608.367188 73.917969 603.445312 86.144531 596.316406 C 98.464844 589.363281 109.613281 580.746094 120.535156 572.175781 C 126.035156 567.84375 131.40625 563.464844 136.640625 558.867188 C 141.78125 554.164062 147.199219 549.292969 153.070312 544.738281 C 164.480469 535.765625 181.3125 529.492188 195.304688 535.796875 L 194.945312 536.882812 " fill-opacity="1" fill-rule="nonzero"/><path fill="#040505" d="M 155.910156 521 C 148.550781 513.332031 144.496094 503.5 140.523438 494.339844 C 136.6875 484.761719 133.082031 476.875 127.308594 469.296875 C 121.84375 461.53125 115.117188 453.910156 107.402344 447.496094 C 99.640625 441.085938 91.066406 435.667969 82.808594 429.488281 C 74.414062 423.445312 66.652344 416.539062 59.835938 408.777344 C 52.933594 401.152344 46.433594 393.121094 40.792969 384.597656 C 29.648438 367.351562 20.757812 349.03125 13.898438 329.761719 L 14.9375 329.183594 C 28.113281 344.882812 39.394531 361.527344 50.949219 377.644531 C 62.09375 394.117188 73.871094 409.816406 87.003906 424.796875 C 93.683594 432.203125 101.351562 438.742188 109.65625 444.515625 C 117.960938 450.292969 127.03125 455.398438 134.652344 463.101562 C 142.371094 470.738281 146.574219 481.875 148.96875 491.40625 C 151.808594 501.144531 153.335938 510.984375 156.902344 520.367188 L 155.910156 521 " fill-opacity="1" fill-rule="nonzero"/><path fill="#040505" d="M 243.140625 549.832031 C 245.035156 534.136719 250.003906 518.886719 245.347656 505.253906 C 241.558594 491.21875 232.894531 478.316406 226.402344 464.144531 C 219.539062 450.152344 212.910156 435.992188 204.335938 422.949219 C 195.894531 409.863281 186.050781 397.71875 176.035156 385.8125 L 183.164062 382.832031 C 186.1875 396.183594 188.8125 409.640625 191.25 423.089844 C 193.765625 436.535156 196.203125 449.980469 197.972656 463.519531 C 199.992188 477.011719 201.171875 490.675781 202.753906 504.261719 C 203.34375 510.894531 204.152344 517.476562 206.046875 523.75 C 207.804688 530.023438 210.472656 536.167969 215.566406 540.582031 L 214.929688 541.574219 C 208.390625 538.511719 203.921875 532.101562 200.8125 525.785156 C 197.742188 519.292969 195.707031 512.476562 194.089844 505.613281 C 191.421875 492.214844 188.316406 478.859375 186.050781 465.414062 C 183.578125 451.96875 181.765625 438.429688 180.054688 424.84375 C 178.207031 411.304688 176.53125 397.71875 175.316406 384.101562 L 173.78125 367.269531 L 182.445312 381.121094 C 190.796875 394.429688 198.6875 407.96875 207.261719 421.054688 C 215.707031 434.222656 225.316406 446.640625 234.074219 459.71875 C 242.644531 472.679688 250.996094 486.621094 254.335938 503.222656 C 256.136719 511.296875 255.410156 520.503906 252.9375 528.082031 C 250.628906 535.796875 247.382812 542.9375 244.273438 550.15625 L 243.140625 549.832031 " fill-opacity="1" fill-rule="nonzero"/><path fill="#040505" d="M 225.628906 544.152344 C 224.277344 530.566406 221.699219 518.5625 219.183594 506.0625 C 218.144531 499.976562 217.195312 492.941406 215.253906 486.621094 C 213.3125 480.210938 210.289062 474.25 206.996094 468.347656 C 200.132812 456.703125 194.808594 444.46875 190.070312 432.019531 C 185.832031 419.378906 182.398438 406.429688 181.140625 392.625 L 182.214844 392.222656 C 190.429688 403.371094 196.390625 415.371094 201.578125 427.6875 C 206.230469 440.136719 210.378906 452.867188 212.910156 466.128906 C 214.308594 472.726562 216.015625 479.21875 218.777344 485.304688 C 221.390625 491.484375 225.722656 496.730469 228.425781 503.40625 C 233.078125 516.496094 233.4375 531.789062 226.761719 544.425781 L 225.628906 544.152344 " fill-opacity="1" fill-rule="nonzero"/><path fill="#040505" d="M 475.769531 865.207031 C 463.398438 837.058594 443.769531 813.859375 422.964844 791.566406 C 402.484375 768.960938 382.265625 746.039062 357.035156 730.238281 C 331.992188 714.179688 303.25 704.074219 273.558594 698.296875 C 243.8125 692.519531 213.082031 691.667969 182.710938 693.605469 L 184.074219 690.671875 C 209.339844 725.328125 240.070312 755.917969 274.183594 781.273438 C 291.292969 793.910156 309.289062 805.195312 328.246094 814.578125 C 347.113281 824.097656 367.144531 831.28125 387.40625 837.910156 C 407.625 844.496094 428.429688 850.816406 448.832031 856.40625 C 469.359375 861.730469 489.667969 864.988281 510.382812 861.015625 C 520.800781 859.339844 531.222656 856.777344 542.011719 854.914062 C 552.800781 853.160156 563.625 851.945312 574.496094 851.359375 C 596.25 850.007812 618.003906 851.808594 639.261719 855.550781 L 639.074219 856.730469 C 617.691406 854.742188 596.203125 855.367188 575.039062 857.769531 C 553.703125 859.929688 533.660156 865.9375 512.136719 870.578125 C 490.429688 875.546875 466.875 873.46875 445.941406 867.738281 C 424.8125 862.101562 404.378906 856.09375 383.617188 849.507812 C 342.375 836.144531 302.210938 816.253906 268.589844 788.492188 C 234.570312 761.105469 206.496094 727.625 181.09375 692.832031 L 179.0625 690.082031 L 182.492188 689.898438 C 213.082031 688.234375 243.859375 688.097656 274.597656 691.886719 C 305.191406 695.722656 335.917969 704.664062 362.546875 721.621094 C 389.300781 738.726562 409.566406 762.917969 429.113281 786.242188 C 438.804688 798.070312 448.601562 810.070312 457.078125 823.019531 C 465.339844 836.109375 472.246094 850.085938 476.84375 864.804688 L 475.769531 865.207031 " fill-opacity="1" fill-rule="nonzero"/><path fill="#040505" d="M 262.097656 995.894531 C 283.574219 982.03125 305.457031 969.902344 327.9375 958.570312 C 339.304688 953.246094 351.039062 948.371094 362.050781 942.234375 C 373.152344 936.195312 382.902344 928.152344 394.71875 922.160156 C 406.769531 915.839844 420.445312 914.984375 432.21875 912.71875 C 444.359375 910.46875 456.226562 907.222656 467.683594 903.25 C 490.835938 895.671875 512 883.171875 529.699219 864.894531 L 530.644531 865.566406 C 518.816406 888.589844 496.300781 905.777344 471.84375 914.847656 C 459.5625 919.445312 446.660156 921.925781 433.847656 923.464844 C 420.757812 925.171875 408.570312 924.320312 397.113281 928.027344 C 373.742188 936.007812 353.789062 953.382812 332.535156 967.015625 C 310.734375 980.007812 287.273438 990.335938 262.585938 996.96875 L 262.097656 995.894531 " fill-opacity="1" fill-rule="nonzero"/><g clip-path="url(#17582940ce)"><path fill="#040505" d="M 381.226562 899.226562 C 397.792969 893.09375 415.203125 889.167969 433.257812 888.855469 C 442.234375 889.039062 451.628906 890.160156 460.246094 895.21875 C 464.484375 897.738281 468.550781 901.851562 470.351562 907.269531 C 472.109375 912.640625 471.394531 918.09375 470.261719 922.78125 C 458.351562 958.351562 432.265625 986.410156 401.445312 1005.320312 C 370.53125 1024.355469 334.566406 1034.015625 299.054688 1035.378906 C 263.359375 1036.949219 228.25 1032.164062 193.5 1025.800781 L 186.234375 1024.496094 L 193.234375 1021.5625 C 210.332031 1014.386719 219.761719 997.292969 231.230469 981.949219 C 237.054688 974.234375 243.730469 966.425781 252.707031 960.914062 C 261.777344 955.011719 271.976562 953.382812 280.503906 950.632812 C 297.875 945.261719 314.441406 935.964844 330.6875 926.132812 C 347.066406 916.429688 363.355469 906.042969 381.226562 899.226562 Z M 381.632812 900.3125 C 363.804688 907.039062 348.464844 918.496094 333.308594 930.003906 C 318.09375 941.335938 302.484375 953.335938 283.621094 960.058594 C 274.183594 963.398438 265.207031 965.109375 258.078125 969.671875 C 250.675781 974.050781 244.449219 980.679688 238.21875 987.632812 C 232.085938 994.621094 226.171875 1002.292969 219.355469 1009.292969 C 212.539062 1016.328125 204.246094 1022.460938 194.714844 1025.753906 L 194.449219 1021.46875 C 228.425781 1029.820312 263.949219 1032.570312 298.464844 1028.375 C 332.847656 1024.046875 366.554688 1014.074219 395.125 995.304688 C 423.695312 977.074219 447.515625 950.308594 460.742188 920.125 C 463.304688 912.675781 462.496094 905.996094 456.085938 901.261719 C 449.90625 896.570312 441.425781 894.273438 432.980469 893.324219 C 415.882812 891.558594 398.058594 894.398438 381.632812 900.3125 " fill-opacity="1" fill-rule="nonzero"/></g><path fill="#040505" d="M 468.179688 861.917969 C 446.253906 845.753906 426.441406 827.804688 406.585938 810.070312 C 396.878906 800.863281 387.269531 791.425781 376.304688 783.710938 C 365.390625 775.960938 353.386719 769.90625 340.886719 765.171875 C 315.933594 755.777344 290.160156 747.796875 265.300781 737.191406 C 241.339844 726.820312 214.261719 717.703125 193.6875 699.335938 L 194.308594 698.34375 C 218.640625 710.34375 244.226562 715.9375 269.945312 725.777344 C 294.585938 736.335938 319.859375 745.808594 343.589844 759.441406 C 355.464844 766.117188 366.878906 773.523438 378.386719 780.601562 C 389.890625 787.683594 401.753906 794.546875 412.730469 802.667969 C 434.207031 819.40625 452.710938 839.355469 469 861.109375 L 468.179688 861.917969 " fill-opacity="1" fill-rule="nonzero"/><path fill="#040505" d="M 537.183594 594.148438 C 560.921875 584.71875 581.1875 568.652344 596.933594 549.292969 C 612.539062 529.757812 624.679688 507.382812 631.679688 483.457031 C 635.066406 471.546875 637.675781 459.546875 637.089844 447.40625 C 636.558594 435.21875 634.074219 422.996094 630.503906 410.949219 C 623.109375 386.804688 613.3125 363.066406 600.363281 341.1875 L 603.65625 341.277344 C 579.824219 375.75 557.261719 412.253906 546.609375 452.464844 C 541.285156 472.496094 539.078125 492.894531 540.707031 513.515625 C 541.921875 534.136719 545.488281 554.984375 546.484375 576.554688 C 547.0625 587.25 546.65625 598.523438 544.855469 608.816406 L 540.300781 640.261719 C 537.820312 660.617188 537.496094 681.375 540.070312 701.855469 C 545.132812 742.828125 560.148438 782.761719 584.109375 817.417969 L 583.207031 818.148438 C 555.644531 786.054688 536.734375 745.808594 530.101562 703.300781 C 526.484375 682.089844 525.898438 660.304688 528.335938 638.816406 C 530.320312 617.886719 535.648438 597.3125 534.433594 576.957031 C 533.984375 556.382812 530.910156 535.441406 530.101562 514.011719 C 529.0625 492.527344 532.214844 470.507812 538.984375 450.152344 C 552.800781 409.226562 577.570312 374.351562 600.410156 339.0625 L 602.074219 336.449219 L 603.75 339.152344 C 617.011719 361.171875 628.96875 384.101562 638.035156 408.417969 C 642.550781 420.605469 646.25 433.460938 646.882812 446.953125 C 647.613281 460.398438 645.53125 473.9375 641.386719 486.4375 C 633.171875 511.34375 620.535156 534.988281 602.753906 554.304688 C 585.195312 573.617188 562.632812 588.914062 537.542969 595.277344 L 537.183594 594.148438 " fill-opacity="1" fill-rule="nonzero"/><path fill="#040505" d="M 537.277344 672.523438 C 539.390625 663.863281 545.351562 656.871094 551.625 650.785156 C 558.035156 644.730469 565.382812 639.730469 573.238281 635.398438 C 588.984375 626.550781 607.304688 623.382812 624.910156 622.761719 C 642.644531 622.171875 659.972656 623.878906 677.253906 626.273438 C 694.539062 628.675781 711.601562 632.464844 728.203125 637.605469 L 737.316406 640.398438 L 728.929688 643.921875 C 712.457031 650.820312 696.167969 658.132812 680.28125 666.253906 C 664.214844 674.152344 649.726562 684.492188 632.535156 691.710938 C 614.929688 699.011719 595.441406 698.46875 577.929688 696.125 C 569.355469 695.003906 560.058594 695.097656 551.082031 692.742188 C 546.703125 691.480469 541.964844 689.851562 538.941406 685.972656 C 535.96875 682.007812 536.191406 676.855469 537.277344 672.523438 Z M 538.398438 672.800781 C 537.496094 676.996094 537.414062 681.777344 540.210938 684.976562 C 543.097656 688.003906 547.382812 689.320312 551.671875 689.726562 C 560.289062 690.582031 568.953125 689.136719 578.207031 688.730469 C 596.125 687.867188 613.175781 687.914062 629.417969 682.726562 C 637.675781 680.472656 645.84375 677.132812 654.105469 673.703125 C 662.363281 670.320312 670.625 666.839844 678.652344 662.960938 C 694.722656 655.242188 710.421875 646.71875 725.949219 637.824219 L 726.617188 644.140625 C 709.753906 641.207031 692.875 638.910156 675.949219 637.199219 C 659.070312 635.664062 641.964844 634.855469 625.222656 634.980469 C 608.484375 635.214844 592.058594 637.199219 576.21875 642.203125 C 568.269531 644.871094 560.554688 648.472656 553.609375 653.210938 C 546.75 658.039062 540.660156 664.589844 538.398438 672.800781 " fill-opacity="1" fill-rule="nonzero"/><path fill="#040505" d="M 538.363281 608.992188 C 533.488281 597.855469 526.625 588.105469 519.3125 578.851562 C 512 569.554688 503.785156 561.027344 495.074219 553.3125 C 486.332031 545.734375 476.984375 537.878906 467.234375 530.703125 C 457.53125 523.390625 447.109375 517.121094 436.734375 510.671875 L 439.890625 508.6875 C 442.777344 523.578125 447.515625 537.96875 451.9375 552.316406 C 456.503906 566.617188 461.285156 580.886719 468.226562 593.335938 C 474.996094 606.101562 484.480469 615.539062 497.246094 623.878906 C 509.433594 632.464844 523.148438 640.675781 532.945312 652.898438 L 532.125 653.707031 C 519.855469 644.777344 505.773438 639.5 492.28125 632.011719 C 485.554688 628.257812 478.566406 624.378906 472.339844 618.695312 C 466.285156 613.058594 461.191406 606.425781 457.449219 599.253906 C 449.824219 584.941406 445.941406 569.785156 442.417969 554.894531 C 438.941406 539.863281 437.453125 524.476562 435.835938 509.277344 L 435.382812 504.621094 L 439.035156 507.289062 C 448.785156 514.417969 459.25 520.597656 470.074219 526.1875 C 480.867188 531.964844 491.921875 537.519531 501.765625 545.503906 C 511.503906 553.621094 519.496094 563.417969 526.265625 573.929688 C 532.851562 584.441406 538.128906 596.273438 539.484375 608.679688 L 538.363281 608.992188 " fill-opacity="1" fill-rule="nonzero"/><path fill="#040505" d="M 710.15625 642.433594 C 704.195312 647.621094 696.167969 649.515625 689.257812 651.050781 C 682.128906 652.585938 674.910156 653.800781 667.597656 654.03125 C 660.285156 654.125 652.84375 653.304688 645.53125 653.753906 C 638.265625 654.203125 631.140625 655.832031 624.011719 657.726562 C 609.835938 662.011719 595.175781 663.328125 582.445312 667.429688 C 569.3125 671 556.269531 676.996094 541.921875 681.464844 L 541.285156 680.472656 C 551.808594 669.867188 563.984375 660.800781 578.75 655.648438 C 586.1875 653.175781 593.90625 652.355469 601.265625 651.8125 C 608.667969 651.1875 615.878906 651.234375 623.28125 651.410156 C 630.597656 651.546875 637.910156 651.363281 645.082031 650.058594 C 652.257812 648.75 659.246094 646.222656 666.386719 644.511719 C 673.511719 642.929688 680.777344 642.433594 688.082031 642.15625 C 695.53125 641.84375 702.347656 642.570312 709.613281 641.394531 L 710.15625 642.433594 " fill-opacity="1" fill-rule="nonzero"/></g></g></g></svg>