<svg xmlns="http://www.w3.org/2000/svg" xmlns:xlink="http://www.w3.org/1999/xlink" width="1080" zoomAndPan="magnify" viewBox="0 0 810 1094.999951" height="1460" preserveAspectRatio="xMidYMid meet" version="1.0"><defs><clipPath id="fdd16dff01"><path d="M 12.375 468 L 797.625 468 L 797.625 1082.46875 L 12.375 1082.46875 Z M 12.375 468 " clip-rule="nonzero"/></clipPath><clipPath id="b0a8024d1c"><path d="M 392 297.21875 L 418 297.21875 L 418 433 L 392 433 Z M 392 297.21875 " clip-rule="nonzero"/></clipPath><clipPath id="f32039d9c2"><path d="M 12.375 616 L 123 616 L 123 641 L 12.375 641 Z M 12.375 616 " clip-rule="nonzero"/></clipPath><clipPath id="37902bad02"><path d="M 687 616 L 797.625 616 L 797.625 641 L 687 641 Z M 687 616 " clip-rule="nonzero"/></clipPath></defs><g clip-path="url(#fdd16dff01)"><path fill="#000000" d="M 748.546875 984.3125 L 736.277344 984.3125 C 722.75 984.3125 711.738281 973.304688 711.738281 959.773438 C 711.738281 932.710938 689.726562 910.695312 662.660156 910.695312 L 466.347656 910.695312 L 466.347656 873.886719 L 661.460938 873.886719 C 671.851562 873.886719 681.832031 869.476562 688.84375 861.785156 C 695.71875 854.242188 699.132812 844.140625 698.199219 834.070312 C 685.226562 694.320312 577.78125 586.402344 441.808594 569.667969 L 441.808594 554.878906 L 452.304688 554.878906 C 459.890625 554.878906 466.921875 551.46875 471.609375 545.527344 C 476.292969 539.601562 477.960938 531.992188 476.210938 524.640625 C 467.738281 489.277344 441.785156 468.992188 405 468.992188 C 368.214844 468.992188 342.261719 489.277344 333.789062 524.648438 C 332.039062 531.992188 333.707031 539.601562 338.390625 545.527344 C 343.078125 551.46875 350.109375 554.878906 357.695312 554.878906 L 368.191406 554.878906 L 368.191406 569.667969 C 232.21875 586.402344 124.773438 694.320312 111.800781 834.070312 C 110.867188 844.140625 114.28125 854.242188 121.160156 861.785156 C 128.167969 869.476562 138.148438 873.886719 148.539062 873.886719 L 441.808594 873.886719 L 441.808594 910.695312 L 368.191406 910.695312 L 368.191406 898.425781 C 368.191406 891.648438 362.703125 886.15625 355.921875 886.15625 C 349.140625 886.15625 343.652344 891.648438 343.652344 898.425781 L 343.652344 910.695312 L 147.339844 910.695312 C 120.273438 910.695312 98.261719 932.710938 98.261719 959.773438 C 98.261719 973.304688 87.25 984.3125 73.722656 984.3125 L 61.453125 984.3125 C 34.386719 984.3125 12.375 1006.328125 12.375 1033.390625 L 12.375 1070.199219 C 12.375 1076.976562 17.863281 1082.46875 24.644531 1082.46875 L 785.355469 1082.46875 C 792.136719 1082.46875 797.625 1076.976562 797.625 1070.199219 L 797.625 1033.390625 C 797.625 1006.328125 775.613281 984.3125 748.546875 984.3125 Z M 357.660156 530.359375 C 363.507812 505.921875 379.441406 493.53125 405 493.53125 C 430.558594 493.53125 446.492188 505.921875 452.304688 530.339844 Z M 392.730469 554.878906 L 417.269531 554.878906 L 417.269531 567.722656 C 413.171875 567.554688 409.136719 567.148438 405 567.148438 C 400.863281 567.148438 396.828125 567.554688 392.730469 567.722656 Z M 139.289062 845.253906 C 137.023438 842.761719 135.933594 839.59375 136.246094 836.335938 C 149.183594 696.863281 264.726562 591.6875 405 591.6875 C 545.273438 591.6875 660.816406 696.863281 673.753906 836.335938 C 674.066406 839.59375 672.976562 842.761719 670.710938 845.253906 C 668.339844 847.855469 664.972656 849.347656 661.460938 849.347656 L 148.539062 849.347656 C 145.027344 849.347656 141.660156 847.855469 139.289062 845.253906 Z M 773.085938 1057.929688 L 36.914062 1057.929688 L 36.914062 1033.390625 C 36.914062 1019.855469 47.925781 1008.851562 61.453125 1008.851562 L 73.722656 1008.851562 C 100.789062 1008.851562 122.800781 986.835938 122.800781 959.773438 C 122.800781 946.238281 133.8125 935.234375 147.339844 935.234375 L 662.660156 935.234375 C 676.1875 935.234375 687.199219 946.238281 687.199219 959.773438 C 687.199219 986.835938 709.210938 1008.851562 736.277344 1008.851562 L 748.546875 1008.851562 C 762.074219 1008.851562 773.085938 1019.855469 773.085938 1033.390625 Z M 773.085938 1057.929688 " fill-opacity="1" fill-rule="nonzero"/></g><path fill="#000000" d="M 650.390625 984.3125 L 589.042969 984.3125 C 582.261719 984.3125 576.773438 989.804688 576.773438 996.582031 C 576.773438 1003.359375 582.261719 1008.851562 589.042969 1008.851562 L 650.390625 1008.851562 C 657.171875 1008.851562 662.660156 1003.359375 662.660156 996.582031 C 662.660156 989.804688 657.171875 984.3125 650.390625 984.3125 Z M 650.390625 984.3125 " fill-opacity="1" fill-rule="nonzero"/><path fill="#000000" d="M 539.964844 984.3125 L 159.609375 984.3125 C 152.828125 984.3125 147.339844 989.804688 147.339844 996.582031 C 147.339844 1003.359375 152.828125 1008.851562 159.609375 1008.851562 L 539.964844 1008.851562 C 546.746094 1008.851562 552.234375 1003.359375 552.234375 996.582031 C 552.234375 989.804688 546.746094 984.3125 539.964844 984.3125 Z M 539.964844 984.3125 " fill-opacity="1" fill-rule="nonzero"/><path fill="#000000" d="M 507.039062 641.394531 C 500.542969 639.242188 493.664062 642.722656 491.523438 649.15625 C 489.378906 655.585938 492.851562 662.53125 499.273438 664.675781 C 519.164062 671.300781 538.191406 683.605469 555.828125 701.25 C 558.226562 703.644531 561.363281 704.84375 564.503906 704.84375 C 567.644531 704.84375 570.78125 703.648438 573.179688 701.25 C 577.972656 696.464844 577.972656 688.691406 573.179688 683.902344 C 552.835938 663.539062 530.570312 649.234375 507.039062 641.394531 Z M 507.039062 641.394531 " fill-opacity="1" fill-rule="nonzero"/><path fill="#000000" d="M 610.96875 732.542969 C 607.460938 726.765625 599.921875 724.925781 594.113281 728.4375 C 588.324219 731.960938 586.480469 739.507812 590 745.300781 C 598.113281 758.621094 602.269531 768.207031 602.304688 768.300781 C 604.308594 772.945312 608.835938 775.722656 613.59375 775.722656 C 615.199219 775.722656 616.839844 775.40625 618.421875 774.730469 C 624.640625 772.058594 627.527344 764.855469 624.855469 758.632812 C 624.667969 758.183594 620.050781 747.46875 610.96875 732.542969 Z M 610.96875 732.542969 " fill-opacity="1" fill-rule="nonzero"/><path fill="#000000" d="M 669.789062 540.328125 L 755.675781 478.980469 C 761.1875 475.039062 762.46875 467.375 758.527344 461.863281 C 754.585938 456.34375 746.929688 455.074219 741.417969 459.007812 L 655.53125 520.355469 C 650.019531 524.296875 648.734375 531.957031 652.679688 537.46875 C 655.074219 540.824219 658.839844 542.609375 662.671875 542.609375 C 665.140625 542.609375 667.632812 541.867188 669.789062 540.328125 Z M 669.789062 540.328125 " fill-opacity="1" fill-rule="nonzero"/><path fill="#000000" d="M 574.484375 451.582031 L 635.832031 365.695312 C 639.773438 360.183594 638.492188 352.519531 632.980469 348.578125 C 627.480469 344.648438 619.8125 345.925781 615.871094 351.4375 L 554.523438 437.324219 C 550.582031 442.835938 551.863281 450.496094 557.375 454.4375 C 559.53125 455.980469 562.023438 456.722656 564.492188 456.722656 C 568.324219 456.722656 572.089844 454.9375 574.484375 451.582031 Z M 574.484375 451.582031 " fill-opacity="1" fill-rule="nonzero"/><g clip-path="url(#b0a8024d1c)"><path fill="#000000" d="M 417.269531 419.914062 L 417.269531 309.488281 C 417.269531 302.710938 411.78125 297.21875 405 297.21875 C 398.21875 297.21875 392.730469 302.710938 392.730469 309.488281 L 392.730469 419.914062 C 392.730469 426.691406 398.21875 432.183594 405 432.183594 C 411.78125 432.183594 417.269531 426.691406 417.269531 419.914062 Z M 417.269531 419.914062 " fill-opacity="1" fill-rule="nonzero"/></g><path fill="#000000" d="M 147.328125 542.609375 C 151.160156 542.609375 154.925781 540.824219 157.320312 537.46875 C 161.261719 531.957031 159.980469 524.292969 154.46875 520.351562 L 68.582031 459.003906 C 63.082031 455.078125 55.414062 456.355469 51.472656 461.863281 C 47.53125 467.375 48.8125 475.035156 54.324219 478.976562 L 140.210938 540.324219 C 142.367188 541.867188 144.859375 542.609375 147.328125 542.609375 Z M 147.328125 542.609375 " fill-opacity="1" fill-rule="nonzero"/><path fill="#000000" d="M 245.507812 456.722656 C 247.976562 456.722656 250.46875 455.980469 252.625 454.441406 C 258.136719 450.5 259.421875 442.835938 255.476562 437.324219 L 194.128906 351.4375 C 190.1875 345.925781 182.53125 344.644531 177.019531 348.582031 C 171.507812 352.523438 170.226562 360.183594 174.167969 365.695312 L 235.515625 451.582031 C 237.910156 454.9375 241.675781 456.722656 245.507812 456.722656 Z M 245.507812 456.722656 " fill-opacity="1" fill-rule="nonzero"/><g clip-path="url(#f32039d9c2)"><path fill="#000000" d="M 12.375 628.496094 C 12.375 635.273438 17.863281 640.765625 24.644531 640.765625 L 110.53125 640.765625 C 117.3125 640.765625 122.800781 635.273438 122.800781 628.496094 C 122.800781 621.71875 117.3125 616.226562 110.53125 616.226562 L 24.644531 616.226562 C 17.863281 616.226562 12.375 621.71875 12.375 628.496094 Z M 12.375 628.496094 " fill-opacity="1" fill-rule="nonzero"/></g><g clip-path="url(#37902bad02)"><path fill="#000000" d="M 785.355469 616.226562 L 699.46875 616.226562 C 692.6875 616.226562 687.199219 621.71875 687.199219 628.496094 C 687.199219 635.273438 692.6875 640.765625 699.46875 640.765625 L 785.355469 640.765625 C 792.136719 640.765625 797.625 635.273438 797.625 628.496094 C 797.625 621.71875 792.136719 616.226562 785.355469 616.226562 Z M 785.355469 616.226562 " fill-opacity="1" fill-rule="nonzero"/></g></svg>