<svg xmlns="http://www.w3.org/2000/svg" xmlns:xlink="http://www.w3.org/1999/xlink" width="1080" zoomAndPan="magnify" viewBox="0 0 810 1094.999951" height="1460" preserveAspectRatio="xMidYMid meet" version="1.0"><defs><clipPath id="0bca5d9b30"><path d="M 37 165 L 348 165 L 348 1094.980469 L 37 1094.980469 Z M 37 165 " clip-rule="nonzero"/></clipPath></defs><path fill="#100f0d" d="M 317.195312 41.617188 C 300.707031 41.617188 286.058594 51.78125 277.859375 68.933594 C 273.839844 77.425781 271.414062 94.953125 282.964844 130.347656 L 283.003906 130.347656 C 286.898438 142.3125 296.523438 164.023438 317.027344 174.605469 C 333.679688 183.183594 354.5625 180.757812 365.609375 168.917969 C 372.976562 161.050781 376.992188 148.921875 377.996094 131.851562 C 379.378906 108.214844 375.027344 87.339844 365.402344 71.445312 C 354.519531 53.496094 335.730469 41.78125 317.613281 41.617188 C 317.445312 41.617188 317.320312 41.617188 317.195312 41.617188 Z M 338.242188 198.117188 C 328.242188 198.117188 317.988281 195.773438 308.574219 190.921875 C 289.074219 180.839844 273.796875 161.34375 265.511719 136.035156 C 254.550781 102.566406 253.167969 78.011719 261.285156 61.027344 C 272.585938 37.347656 293.464844 23.25 317.195312 23.25 C 317.359375 23.25 317.570312 23.25 317.78125 23.25 C 342.511719 23.5 366.78125 38.3125 381.09375 61.945312 C 392.683594 80.980469 397.957031 105.539062 396.324219 132.898438 C 395.113281 154.441406 389.421875 170.339844 379.042969 181.425781 C 368.832031 192.386719 353.851562 198.117188 338.242188 198.117188 " fill-opacity="1" fill-rule="nonzero"/><path fill="#100f0d" d="M 575.597656 472.214844 C 571.035156 472.214844 566.433594 471.753906 561.828125 470.75 L 563.167969 461.632812 L 561.160156 470.625 C 503.703125 457.90625 447.546875 436.90625 398.835938 409.964844 C 394.402344 407.496094 392.8125 401.890625 395.238281 397.457031 C 397.707031 393.023438 403.3125 391.433594 407.75 393.859375 C 454.953125 420.007812 509.351562 440.335938 565.136719 452.679688 L 563.753906 461.796875 L 565.679688 452.804688 C 578.777344 455.605469 592.167969 452.71875 603.300781 444.730469 C 614.972656 436.363281 622.632812 423.351562 624.347656 409.003906 C 625.6875 397.542969 623.007812 392.773438 616.566406 381.269531 L 615.183594 378.800781 C 612.714844 374.363281 614.304688 368.800781 618.742188 366.332031 C 623.175781 363.863281 628.785156 365.453125 631.253906 369.890625 L 632.589844 372.273438 C 639.582031 384.738281 644.644531 393.734375 642.59375 411.136719 C 640.292969 430.589844 629.871094 448.285156 614.011719 459.664062 C 602.460938 467.949219 589.195312 472.214844 575.597656 472.214844 " fill-opacity="1" fill-rule="nonzero"/><path fill="#100f0d" d="M 528.894531 263.003906 C 526.886719 263.003906 524.878906 262.960938 522.953125 262.835938 C 495.125 261.078125 468.636719 250.117188 445.246094 240.410156 L 388.625 216.984375 C 383.9375 215.058594 381.679688 209.664062 383.644531 204.976562 C 385.570312 200.292969 390.925781 198.074219 395.65625 200.042969 L 452.273438 223.46875 C 475.414062 233.050781 499.308594 242.921875 524.082031 244.46875 C 548.5625 245.976562 580.074219 235.976562 593.046875 213.804688 C 595.597656 209.414062 601.207031 207.949219 605.601562 210.5 C 609.953125 213.050781 611.460938 218.65625 608.90625 223.050781 C 592.542969 250.996094 557.226562 263.003906 528.894531 263.003906 " fill-opacity="1" fill-rule="nonzero"/><path fill="#100f0d" d="M 463.90625 1090.777344 C 366.113281 1090.777344 241.117188 1075.757812 179.894531 1033.378906 C 175.710938 1030.492188 174.664062 1024.761719 177.550781 1020.578125 C 180.4375 1016.4375 186.171875 1015.390625 190.355469 1018.277344 C 239.234375 1052.078125 345.273438 1072.789062 467.003906 1072.410156 C 581.164062 1072.035156 680.507812 1052.5 723.941406 1022.292969 C 712.183594 992.425781 696.324219 950.046875 679.628906 905.367188 C 643.597656 809.023438 598.78125 689.125 572.375 635.160156 C 555.007812 599.640625 542.328125 569.269531 536.804688 536.304688 C 531.992188 507.480469 534 497.441406 538.3125 475.351562 C 539.359375 470.164062 540.488281 464.265625 541.742188 457.195312 C 542.621094 452.175781 547.390625 448.871094 552.371094 449.75 C 557.394531 450.628906 560.742188 455.355469 559.820312 460.375 C 558.566406 467.570312 557.394531 473.597656 556.347656 478.867188 C 552.203125 499.910156 550.699219 507.773438 554.925781 533.25 C 560.070312 564.042969 572.207031 593.03125 588.863281 627.085938 C 615.6875 681.847656 658.789062 797.183594 696.828125 898.925781 C 714.777344 946.867188 731.683594 992.171875 743.609375 1022.042969 C 745.117188 1025.765625 743.988281 1030.03125 740.847656 1032.585938 C 688.375 1075.003906 565.007812 1090.484375 467.089844 1090.777344 C 466 1090.777344 464.953125 1090.777344 463.90625 1090.777344 " fill-opacity="1" fill-rule="nonzero"/><path fill="#100f0d" d="M 585.683594 398.085938 C 584.089844 398.085938 582.625 398.042969 581.289062 398.042969 C 581.121094 398.042969 580.953125 398.042969 580.785156 398 C 575.511719 397.667969 450.390625 387.753906 320.75 286.890625 C 316.734375 283.753906 316.023438 277.980469 319.117188 273.964844 C 322.257812 269.988281 328.03125 269.277344 332.007812 272.375 C 454.492188 367.671875 575.765625 379.175781 581.832031 379.679688 C 600.496094 379.929688 612.839844 377.753906 616.941406 366.332031 C 618.574219 361.855469 618.320312 356.5 616.230469 351.3125 C 615.394531 349.265625 614.554688 347.089844 613.675781 344.789062 C 612.046875 340.605469 610.289062 336.046875 608.277344 331.316406 C 600.246094 312.535156 600.035156 291.324219 607.691406 273.167969 C 612.921875 260.742188 620.625 249.363281 630.542969 239.324219 C 634.140625 235.726562 639.957031 235.683594 643.554688 239.242188 C 647.15625 242.796875 647.195312 248.613281 643.640625 252.210938 C 635.355469 260.574219 628.949219 270.03125 624.640625 280.320312 C 618.867188 293.917969 619.074219 309.898438 625.183594 324.121094 C 627.277344 329.015625 629.117188 333.785156 630.792969 338.179688 C 631.671875 340.394531 632.464844 342.488281 633.261719 344.453125 C 637.027344 353.867188 637.363281 363.824219 634.222656 372.566406 C 625.730469 396.203125 600.832031 398.085938 585.683594 398.085938 " fill-opacity="1" fill-rule="nonzero"/><g clip-path="url(#0bca5d9b30)"><path fill="#100f0d" d="M 86.117188 1094.207031 C 85.867188 1094.207031 85.65625 1094.207031 85.40625 1094.207031 C 68.457031 1093.957031 53.101562 1085.171875 44.3125 1070.738281 C 35.480469 1056.261719 34.730469 1038.609375 42.304688 1023.464844 C 109.046875 889.34375 173.199219 757.816406 223.960938 622.398438 C 248.273438 550.863281 257.980469 468.199219 251.367188 439 L 230.863281 347.96875 C 225.132812 322.492188 217.976562 290.738281 229.484375 261.789062 C 236.09375 245.097656 249.359375 230.582031 262.207031 216.566406 C 276.015625 201.464844 289.074219 187.15625 291.375 172.933594 C 292.210938 167.914062 296.941406 164.523438 301.917969 165.320312 C 306.941406 166.15625 310.332031 170.839844 309.535156 175.863281 C 306.355469 195.523438 290.789062 212.507812 275.722656 228.949219 C 264.046875 241.75 251.914062 255.011719 246.558594 268.566406 C 237.851562 290.488281 242.414062 315.671875 248.773438 343.910156 L 269.320312 434.941406 C 277.480469 471.167969 264.632812 559.859375 241.242188 628.589844 C 190.0625 765.054688 125.703125 897.125 58.75 1031.621094 C 54.019531 1041.121094 54.523438 1052.121094 60.003906 1061.15625 C 65.488281 1070.195312 75.109375 1075.675781 85.65625 1075.839844 C 85.824219 1075.839844 85.992188 1075.839844 86.117188 1075.839844 C 97.164062 1075.839844 107.332031 1069.902344 112.773438 1060.320312 C 179.726562 941.59375 257.855469 799.652344 329.582031 647.125 C 331.714844 642.523438 337.195312 640.554688 341.800781 642.730469 C 346.402344 644.867188 348.371094 650.34375 346.195312 654.949219 C 274.21875 808.019531 195.878906 950.339844 128.757812 1069.316406 C 120.097656 1084.710938 103.777344 1094.207031 86.117188 1094.207031 " fill-opacity="1" fill-rule="nonzero"/></g><path fill="#100f0d" d="M 337.867188 660.21875 C 336.609375 660.21875 335.3125 659.96875 334.058594 659.382812 C 329.453125 657.289062 327.40625 651.808594 329.539062 647.207031 C 368.121094 562.953125 398.585938 496.355469 423.234375 418.667969 C 424.78125 413.855469 429.96875 411.179688 434.78125 412.726562 C 439.636719 414.234375 442.316406 419.421875 440.765625 424.273438 C 415.742188 503.003906 385.070312 570.023438 346.234375 654.863281 C 344.6875 658.210938 341.382812 660.21875 337.867188 660.21875 " fill-opacity="1" fill-rule="nonzero"/><path fill="#100f0d" d="M 526.550781 320.191406 C 526.09375 320.191406 525.632812 320.191406 525.171875 320.105469 C 482.824219 313.707031 441.605469 301.363281 402.6875 283.5 L 397.539062 281.117188 C 385.570312 275.511719 374.273438 270.199219 362.347656 268.648438 C 351.132812 267.226562 336.863281 270.15625 330.332031 279.945312 C 327.53125 284.171875 321.839844 285.300781 317.613281 282.496094 C 313.386719 279.695312 312.257812 274.003906 315.058594 269.78125 C 324.601562 255.386719 344.144531 247.773438 364.691406 250.453125 C 379.460938 252.375 392.601562 258.527344 405.324219 264.464844 L 410.386719 266.808594 C 447.714844 283.960938 487.300781 295.800781 527.933594 301.949219 C 532.953125 302.703125 536.386719 307.386719 535.632812 312.410156 C 534.964844 316.925781 531.03125 320.191406 526.550781 320.191406 " fill-opacity="1" fill-rule="nonzero"/><path fill="#100f0d" d="M 671.132812 229.535156 C 673.390625 229.535156 675.566406 230.328125 677.285156 231.878906 C 680.003906 234.304688 681.007812 238.152344 679.878906 241.625 C 668.746094 275.050781 677.828125 312.15625 700.96875 334.328125 C 702.726562 312.492188 706.871094 289.984375 718.085938 268.355469 C 719.84375 264.96875 721.597656 261.539062 723.398438 258.148438 C 734.320312 237.398438 745.578125 215.9375 750.808594 193.433594 C 756.457031 169 753.652344 144.90625 743.277344 128.921875 C 735.953125 117.585938 724.988281 110.390625 710.675781 107.589844 C 690.800781 103.738281 676.78125 115.410156 646.945312 142.183594 L 643.222656 145.53125 C 622.253906 162.683594 607.984375 190.710938 610.414062 209.578125 C 611.878906 220.792969 616.480469 228.613281 624.140625 232.882812 C 634.726562 238.78125 650.878906 237.816406 667.367188 230.371094 C 668.578125 229.785156 669.878906 229.535156 671.132812 229.535156 Z M 709.128906 361.269531 C 707.496094 361.269531 705.863281 360.8125 704.441406 359.972656 C 669.542969 339.097656 651.382812 295.214844 658.242188 252.835938 C 642.214844 256.683594 626.859375 255.429688 615.183594 248.945312 C 606.226562 243.96875 594.972656 233.507812 592.210938 211.964844 C 588.902344 186.53125 605.347656 152.726562 631.292969 131.558594 L 634.683594 128.503906 C 664.6875 101.5625 684.523438 83.785156 714.191406 89.597656 C 733.316406 93.324219 748.714844 103.445312 758.71875 118.925781 C 771.730469 139.003906 775.457031 168.414062 768.675781 197.574219 C 762.945312 222.382812 751.101562 244.886719 739.675781 266.683594 C 737.917969 270.03125 736.121094 273.417969 734.40625 276.808594 C 721.851562 301.070312 719.257812 327.46875 718.335938 352.402344 C 718.210938 355.664062 716.367188 358.59375 713.523438 360.140625 C 712.140625 360.894531 710.636719 361.269531 709.128906 361.269531 " fill-opacity="1" fill-rule="nonzero"/></svg>